<svg xmlns="http://www.w3.org/2000/svg" xmlns:xlink="http://www.w3.org/1999/xlink" width="118" height="118" viewBox="0 0 118 118">
  <defs>
    <filter id="Trazado_982547" x="0" y="0" width="118" height="118" filterUnits="userSpaceOnUse">
      <feOffset dy="3" input="SourceAlpha"/>
      <feGaussianBlur stdDeviation="3" result="blur"/>
      <feFlood flood-opacity="0.161"/>
      <feComposite operator="in" in2="blur"/>
      <feComposite in="SourceGraphic"/>
    </filter>
  </defs>
  <g id="Grupo_1177378" data-name="Grupo 1177378" transform="translate(-269 -9658.328)">
    <g id="Grupo_1176356" data-name="Grupo 1176356" transform="translate(278 9664.328)">
      <g id="Grupo_1172970" data-name="Grupo 1172970" transform="translate(0)">
        <g id="Grupo_1171971" data-name="Grupo 1171971">
          <g id="Grupo_1167337" data-name="Grupo 1167337">
            <g id="Grupo_1166720" data-name="Grupo 1166720">
              <g id="Grupo_1164305" data-name="Grupo 1164305">
                <g id="Grupo_1163948" data-name="Grupo 1163948">
                  <g id="Grupo_1158168" data-name="Grupo 1158168">
                    <g id="Grupo_1152576" data-name="Grupo 1152576">
                      <g id="Grupo_1148633" data-name="Grupo 1148633">
                        <g id="Grupo_1148525" data-name="Grupo 1148525">
                          <g transform="matrix(1, 0, 0, 1, -9, -6)" filter="url(#Trazado_982547)">
                            <g id="Trazado_982547-2" data-name="Trazado 982547" transform="translate(9 6)" fill="#f2f7e5">
                              <path d="M 50 98.5 C 43.45188522338867 98.5 37.10042953491211 97.21787261962891 31.12207221984863 94.68923950195312 C 25.34691429138184 92.24655914306641 20.15995788574219 88.74932861328125 15.70532894134521 84.29468536376953 C 11.2506856918335 79.84004211425781 7.753442764282227 74.65309906005859 5.310757160186768 68.87794494628906 C 2.782128572463989 62.89958572387695 1.5 56.54813003540039 1.5 50 C 1.5 43.45188522338867 2.782128572463989 37.10042953491211 5.310757160186768 31.12207221984863 C 7.753442764282227 25.34691429138184 11.2506856918335 20.15997123718262 15.70532894134521 15.70532894134521 C 20.15997123718262 11.2506856918335 25.34691429138184 7.753442764282227 31.12207221984863 5.310757160186768 C 37.10042953491211 2.782128572463989 43.45188522338867 1.5 50 1.5 C 56.54813003540039 1.5 62.89958572387695 2.782128572463989 68.87794494628906 5.310757160186768 C 74.65309906005859 7.753442764282227 79.84004211425781 11.2506856918335 84.29468536376953 15.70532894134521 C 88.74932861328125 20.15995788574219 92.24655914306641 25.34691429138184 94.68923950195312 31.12207221984863 C 97.21787261962891 37.10042953491211 98.5 43.45188522338867 98.5 50 C 98.5 56.54813003540039 97.21787261962891 62.89958572387695 94.68923950195312 68.87794494628906 C 92.24655914306641 74.65309906005859 88.74932861328125 79.84004211425781 84.29468536376953 84.29468536376953 C 79.84004211425781 88.74932861328125 74.65309906005859 92.24655914306641 68.87794494628906 94.68923950195312 C 62.89958572387695 97.21787261962891 56.54813003540039 98.5 50 98.5 Z" stroke="none"/>
                              <path d="M 50 3 C 43.65372467041016 3 37.49886322021484 4.242263793945312 31.70639801025391 6.6922607421875 C 26.11003112792969 9.059326171875 21.08335113525391 12.44861602783203 16.76598358154297 16.76598358154297 C 12.44861602783203 21.08335113525391 9.059326171875 26.11003112792969 6.6922607421875 31.70639801025391 C 4.242263793945312 37.49886322021484 3 43.65372467041016 3 50 C 3 56.34629058837891 4.242263793945312 62.50115203857422 6.6922607421875 68.29361724853516 C 9.059326171875 73.88998413085938 12.44861602783203 78.91666412353516 16.76598358154297 83.23403167724609 C 21.08335113525391 87.55138397216797 26.11003112792969 90.940673828125 31.70639801025391 93.3077392578125 C 37.49886322021484 95.75773620605469 43.65372467041016 97 50 97 C 56.34629058837891 97 62.50115203857422 95.75773620605469 68.29361724853516 93.3077392578125 C 73.88998413085938 90.940673828125 78.91666412353516 87.55138397216797 83.23403167724609 83.23403167724609 C 87.55138397216797 78.91666412353516 90.940673828125 73.88998413085938 93.3077392578125 68.29361724853516 C 95.75773620605469 62.50115203857422 97 56.34629058837891 97 50 C 97 43.65372467041016 95.75773620605469 37.49886322021484 93.3077392578125 31.70639801025391 C 90.940673828125 26.11003112792969 87.55138397216797 21.08335113525391 83.23403167724609 16.76598358154297 C 78.91666412353516 12.44861602783203 73.88998413085938 9.059326171875 68.29361724853516 6.6922607421875 C 62.50115203857422 4.242263793945312 56.34629058837891 3 50 3 M 50 0 C 77.6142578125 0 100 22.38577270507812 100 50 C 100 77.6142578125 77.6142578125 100 50 100 C 22.38577270507812 100 0 77.6142578125 0 50 C 0 22.38577270507812 22.38577270507812 0 50 0 Z" stroke="none" fill="#86b60c"/>
                            </g>
                          </g>
                        </g>
                      </g>
                    </g>
                  </g>
                </g>
              </g>
            </g>
          </g>
        </g>
      </g>
    </g>
    <g id="tutor_5326603" transform="translate(298.511 9684.851)">
      <g id="Artboard_25" data-name="Artboard 25" transform="translate(1.919 1.917)">
        <path id="Trazado_1035299" data-name="Trazado 1035299" d="M29.57,48.76H5.676A3.676,3.676,0,0,1,2,45.084V15.676A3.676,3.676,0,0,1,5.676,12H29.57Z" transform="translate(-2 -2.81)" fill="#ffc239"/>
        <path id="Trazado_1035300" data-name="Trazado 1035300" d="M2,15.676v4.871A41.428,41.428,0,0,0,29.57,47.923V12H5.676A3.676,3.676,0,0,0,2,15.676Z" transform="translate(-2 -2.81)" fill="#ffd55d"/>
        <path id="Trazado_1035301" data-name="Trazado 1035301" d="M14.578,28a2.757,2.757,0,0,0-2.665,2.05L9.735,39.782a.221.221,0,0,1-.423,0L8.76,37.025a2.068,2.068,0,0,0-2-1.673H4V37.19H6.757a.221.221,0,0,1,.211.175l.551,2.757a2.068,2.068,0,0,0,1.994,1.663,2.04,2.04,0,0,0,2-1.608l2.169-9.668a.919.919,0,0,1,.919-.671h9.613V28Z" transform="translate(-2.162 -4.106)" fill="#f6f8ff"/>
        <path id="Trazado_1035302" data-name="Trazado 1035302" d="M23.6,32.34l-2.987,3.354L17.628,32.34,16.25,33.553l3.134,3.529L16.25,40.611l1.378,1.213,2.987-3.354L23.6,41.824l1.378-1.213-3.134-3.529,3.134-3.529Z" transform="translate(-3.154 -4.457)" fill="#f6f8ff"/>
        <path id="Trazado_1035303" data-name="Trazado 1035303" d="M31.028,42,23.9,44.086A5.514,5.514,0,0,0,20,49.352V60.38H51.246V49.352a5.514,5.514,0,0,0-3.9-5.266L40.218,42Z" transform="translate(-3.458 -5.24)" fill="#e2e7f7"/>
        <path id="Trazado_1035304" data-name="Trazado 1035304" d="M41.22,34.8v6.617l-3.676,2.757H35.706L32.03,41.417V34.8Z" transform="translate(-4.433 -4.657)" fill="#f4c8ad"/>
        <path id="Trazado_1035305" data-name="Trazado 1035305" d="M32,38.466a10.054,10.054,0,0,0,9.19,0V34.79H32Z" transform="translate(-4.43 -4.656)" fill="#f2b9a1"/>
        <path id="Trazado_1035306" data-name="Trazado 1035306" d="M45.76,4.16a4.595,4.595,0,0,1,8.492,2.435V25.7c0,4.135,2.987,8,6.433,10.3H58.405A12.388,12.388,0,0,1,47.111,28.7Z" transform="translate(-5.545 -2)" fill="#393a3a"/>
        <path id="Trazado_1035307" data-name="Trazado 1035307" d="M22,23.137V14.866A12.866,12.866,0,0,1,34.866,2H36.7A12.866,12.866,0,0,1,49.57,14.866v8.271Z" transform="translate(-3.62 -2)" fill="#393a3a"/>
        <path id="Trazado_1035308" data-name="Trazado 1035308" d="M49.876,14.866A12.866,12.866,0,0,0,37.01,2H35.172a12.792,12.792,0,0,0-8.519,3.244c-3.1,7.618,3.005,11.331,3.005,11.331l14.934,6.562h5.284Z" transform="translate(-3.926 -2)" fill="#434444"/>
        <path id="Trazado_1035309" data-name="Trazado 1035309" d="M47.985,21a3.676,3.676,0,0,1,0,7.352H47.82Z" transform="translate(-5.712 -3.539)" fill="#f2b9a1"/>
        <path id="Trazado_1035310" data-name="Trazado 1035310" d="M25.676,21a3.676,3.676,0,1,0,0,7.352h.165Z" transform="translate(-3.62 -3.539)" fill="#f2b9a1"/>
        <path id="Trazado_1035311" data-name="Trazado 1035311" d="M26,17.514v8.271a10.109,10.109,0,1,0,20.218,0V17.514H37.947A5.514,5.514,0,0,1,32.433,12v1.838a3.676,3.676,0,0,1-3.676,3.676Z" transform="translate(-3.944 -2.81)" fill="#f4c8ad"/>
        <path id="Trazado_1035312" data-name="Trazado 1035312" d="M32.757,12v1.838A3.676,3.676,0,0,1,30,17.385v8.4a10.109,10.109,0,0,0,4.54,8.427,6.791,6.791,0,0,0,7.462,0,10.109,10.109,0,0,0,4.54-8.427V17.514H38.271A5.514,5.514,0,0,1,32.757,12Z" transform="translate(-4.268 -2.81)" fill="#fbdac2"/>
        <path id="Trazado_1035313" data-name="Trazado 1035313" d="M44.461,42.809l-1.866,6.543L38,44.757,41.676,42Z" transform="translate(-4.916 -5.24)" fill="#f6f8ff"/>
        <path id="Trazado_1035314" data-name="Trazado 1035314" d="M36,45h1.838V60.623H36Z" transform="translate(-4.754 -5.483)" fill="#cfd4e2"/>
        <path id="Trazado_1035315" data-name="Trazado 1035315" d="M36.682,34.726a3.9,3.9,0,0,1-3.6-2.408l1.691-.7a2.077,2.077,0,0,0,3.823,0l1.691.7A3.9,3.9,0,0,1,36.682,34.726Z" transform="translate(-4.518 -4.399)" fill="#393a3a"/>
        <path id="Trazado_1035316" data-name="Trazado 1035316" d="M46.218,20.919H44.38A.919.919,0,0,0,43.461,20H37.947a.919.919,0,0,0-.919.919v.919H35.19v-.919A.919.919,0,0,0,34.271,20H28.757a.919.919,0,0,0-.919.919H26v1.838h1.838v.919a2.757,2.757,0,0,0,2.757,2.757h1.838a2.757,2.757,0,0,0,2.757-2.757h1.838a2.757,2.757,0,0,0,2.757,2.757h1.838a2.757,2.757,0,0,0,2.757-2.757v-.919h1.838ZM33.352,23.676a.919.919,0,0,1-.919.919H30.595a.919.919,0,0,1-.919-.919V21.838h3.676Zm9.19,0a.919.919,0,0,1-.919.919H39.785a.919.919,0,0,1-.919-.919V21.838h3.676Z" transform="translate(-3.944 -3.458)" fill="#2a2d40"/>
        <path id="Trazado_1035317" data-name="Trazado 1035317" d="M29,42.809l1.838,6.543,4.623-4.595L31.785,42Z" transform="translate(-4.187 -5.24)" fill="#f6f8ff"/>
        <g id="Grupo_1176815" data-name="Grupo 1176815" transform="translate(22.056 45.95)">
          <path id="Trazado_1035318" data-name="Trazado 1035318" d="M26,53h1.838v8.271H26Z" transform="translate(-26 -52.081)" fill="#cfd4e2"/>
          <path id="Trazado_1035319" data-name="Trazado 1035319" d="M46,53h1.838v8.271H46Z" transform="translate(-27.62 -52.081)" fill="#cfd4e2"/>
          <path id="Trazado_1035320" data-name="Trazado 1035320" d="M33,55h1.838v1.838H33Z" transform="translate(-26.567 -52.243)" fill="#cfd4e2"/>
          <path id="Trazado_1035321" data-name="Trazado 1035321" d="M33,52h1.838v1.838H33Z" transform="translate(-26.567 -52)" fill="#cfd4e2"/>
          <path id="Trazado_1035322" data-name="Trazado 1035322" d="M33,58h1.838v1.838H33Z" transform="translate(-26.567 -52.486)" fill="#cfd4e2"/>
        </g>
      </g>
      <g id="Layer_33" data-name="Layer 33" transform="translate(1 0.98)">
        <path id="Trazado_1035323" data-name="Trazado 1035323" d="M33,55h1.838v1.838H33Z" transform="translate(-3.592 -5.356)"/>
        <path id="Trazado_1035324" data-name="Trazado 1035324" d="M33,52h1.838v1.838H33Z" transform="translate(-3.592 -5.113)"/>
        <path id="Trazado_1035325" data-name="Trazado 1035325" d="M33,58h1.838v1.838H33Z" transform="translate(-3.592 -5.599)"/>
        <path id="Trazado_1035326" data-name="Trazado 1035326" d="M36.682,32.888a2.068,2.068,0,0,1-1.912-1.268l-1.691.7a3.9,3.9,0,0,0,7.2,0l-1.691-.7A2.068,2.068,0,0,1,36.682,32.888Z" transform="translate(-3.599 -3.462)"/>
        <path id="Trazado_1035327" data-name="Trazado 1035327" d="M23.6,41.824l1.378-1.213-3.134-3.529,3.134-3.529L23.6,32.34l-2.987,3.354L17.628,32.34,16.25,33.553l3.134,3.529L16.25,40.611l1.378,1.213,2.987-3.354Z" transform="translate(-2.235 -3.52)"/>
        <path id="Trazado_1035328" data-name="Trazado 1035328" d="M53.383,10.188H51.545V6.512A5.514,5.514,0,0,0,41.9,2.836,13.73,13.73,0,0,0,35,1H33.165a13.785,13.785,0,0,0-12.976,9.19H5.595A4.6,4.6,0,0,0,1,14.783V44.191a4.6,4.6,0,0,0,4.595,4.595H17.542v8.271a.919.919,0,0,0,.919.919H49.707a.919.919,0,0,0,.919-.919V48.786h2.757a4.6,4.6,0,0,0,4.595-4.595V14.783A4.6,4.6,0,0,0,53.383,10.188Zm0,1.838a2.757,2.757,0,0,1,2.757,2.757v19.3c-2.417-2.031-4.595-5.045-4.595-8.455v-13.6Zm-7.352-9.19a3.676,3.676,0,0,1,3.676,3.676V25.618c0,3.749,2.169,7.058,4.7,9.374a11.469,11.469,0,0,1-9.925-6.433c.11-.312.2-.634.285-.919a4.6,4.6,0,0,0,4.025-4.586V14.783A13.785,13.785,0,0,0,43.439,3.912a3.676,3.676,0,0,1,2.592-1.075ZM29.305,39.688l2.463,1.838-2.757,2.757L27.835,40.12Zm9.558,0,1.47.432-1.186,4.154L36.39,41.517Zm-1.1-1.47-3.06,2.3H33.468l-3.06-2.3V35.277a10.826,10.826,0,0,0,7.352,0Zm-3.676-4.135a9.19,9.19,0,0,1-9.19-9.19V21.216h.919v.919a2.757,2.757,0,0,0,2.757,2.757h1.838a2.757,2.757,0,0,0,2.757-2.757H35a2.757,2.757,0,0,0,2.757,2.757H39.6a2.757,2.757,0,0,0,2.757-2.757v-.919h.919v3.676A9.19,9.19,0,0,1,34.084,34.082ZM45.112,20.463a2.757,2.757,0,0,1,0,5.192V20.463Zm-1.838-1.084h-.919a.919.919,0,0,0-.919-.919H35.922a.919.919,0,0,0-.919.919V20.3H33.165v-.919a.919.919,0,0,0-.919-.919H26.732a.919.919,0,0,0-.919.919h-.919V17.54h1.838a4.6,4.6,0,0,0,4.1-2.509,6.433,6.433,0,0,0,5.091,2.509h7.352Zm-2.757.919v1.838a.919.919,0,0,1-.919.919H37.76a.919.919,0,0,1-.919-.919V20.3Zm-9.19,0v1.838a.919.919,0,0,1-.919.919H28.57a.919.919,0,0,1-.919-.919V20.3Zm-8.271,5.358a2.757,2.757,0,0,1,0-5.192v5.192ZM33.165,2.836H35A11.947,11.947,0,0,1,46.95,14.783v4.595a4.448,4.448,0,0,0-1.838-.855v-1.9a.919.919,0,0,0-.919-.919H35.922a4.6,4.6,0,0,1-4.595-4.595.919.919,0,1,0-1.838,0v1.838A2.757,2.757,0,0,1,26.732,15.7H23.975a.919.919,0,0,0-.919.919v1.93a4.448,4.448,0,0,0-1.838.827V14.783A11.947,11.947,0,0,1,33.165,2.836ZM5.595,46.948a2.757,2.757,0,0,1-2.757-2.757V14.783a2.757,2.757,0,0,1,2.757-2.757H19.656a13.619,13.619,0,0,0-.276,2.757v8.271a4.521,4.521,0,0,0,.919,2.757H14.335a2.757,2.757,0,0,0-2.665,2.05L9.492,37.593a.221.221,0,0,1-.423,0l-.551-2.757a2.068,2.068,0,0,0-2-1.673H3.757V35H6.514a.221.221,0,0,1,.211.175l.551,2.757A2.068,2.068,0,0,0,9.271,39.6a2.04,2.04,0,0,0,2-1.608l2.169-9.668a.919.919,0,0,1,.919-.671h9.08a11.12,11.12,0,0,0,5.128,6.782v3.557l-6.488,1.893a6.433,6.433,0,0,0-4.54,6.148v.919Zm13.785-.919a4.6,4.6,0,0,1,3.235-4.384l3.455-1.011,1.581,5.643a.919.919,0,0,0,.652.643.983.983,0,0,0,.267.028.919.919,0,0,0,.652-.267l3.942-3.952V56.138H25.813V48.786H23.975v7.352H19.38ZM48.788,56.138H44.193V48.786H42.355v7.352H35V42.73l3.942,3.952a.919.919,0,0,0,.652.267.984.984,0,0,0,.23,0,.919.919,0,0,0,.652-.643L42.1,40.662l3.446,1a4.6,4.6,0,0,1,3.244,4.365Zm4.595-9.19H50.626v-.919a6.433,6.433,0,0,0-4.595-6.148L39.6,37.988V34.431A11.092,11.092,0,0,0,43.5,30.59,13.335,13.335,0,0,0,54.78,36.839h1.36v7.352A2.757,2.757,0,0,1,53.383,46.948Z" transform="translate(-1 -0.98)"/>
      </g>
    </g>
  </g>
</svg>
