<svg xmlns="http://www.w3.org/2000/svg" width="123.729" height="41.475" viewBox="0 0 123.729 41.475">
  <g id="Grupo_1177686" data-name="Grupo 1177686" transform="translate(-22.088 -23.525)">
    <path id="Contenido" d="M7.233-12.076a1.507,1.507,0,0,0-.211-.083q-.123-.04-.264-.075a2.912,2.912,0,0,0-.294-.057,2.084,2.084,0,0,0-.294-.022,1.365,1.365,0,0,0-1.112.47,3.276,3.276,0,0,0-.593,1.4L4.14-9H6.267l-.29,1.222H3.85L1.547,2.988H.088L2.408-7.778H.861L1.134-9H2.681l.36-1.67a4.884,4.884,0,0,1,.466-1.318,3.026,3.026,0,0,1,.712-.888,2.653,2.653,0,0,1,.936-.5A3.947,3.947,0,0,1,6.3-13.535a3.817,3.817,0,0,1,.637.053,3.907,3.907,0,0,1,.532.123ZM10.549,2.865H9.265A11.232,11.232,0,0,1,6.541-4.808a11.658,11.658,0,0,1,2.725-7.8h1.3a11.845,11.845,0,0,0-2.76,7.778A11.638,11.638,0,0,0,10.549,2.865Zm5.108-7.26L17.731,0,16.14.018,15.007-2.8q-.053-.141-.145-.378l-.171-.439h-.044q-.062.088-.145.2l-.163.215q-.079.105-.154.2t-.127.163L11.7,0H9.988L14.04-4.482,12.018-9h1.591L14.69-6.135q.079.211.158.457t.123.387h.035q.053-.062.123-.154l.149-.2q.079-.105.163-.211t.163-.193L18.048-9h1.644Zm4.774,7.26H19.148a11.638,11.638,0,0,0,2.742-7.69A11.845,11.845,0,0,0,19.13-12.6h1.3a11.611,11.611,0,0,1,2.742,7.8A11.188,11.188,0,0,1,20.431,2.865ZM39.6-6.539H31.342V-7.7H39.6Zm0,3.744H31.342v-1.16H39.6Z" transform="translate(22 51)" fill="#212429"/>
    <path id="Contenido-2" data-name="Contenido" d="M8.033-9,5.01-4.447,7.98,0H6.3L4.535-2.918q-.167-.272-.4-.686H4.1q-.044.079-.413.686L1.89,0H.229L3.3-4.412.36-9H2.039l1.74,3.076q.193.343.378.7h.035L6.442-9Zm4.188-2.424a1.52,1.52,0,0,0-.105-.59,1.168,1.168,0,0,0-.287-.418,1.176,1.176,0,0,0-.428-.249,1.676,1.676,0,0,0-.533-.082,1.764,1.764,0,0,0-.482.067,2.343,2.343,0,0,0-.459.185,2.823,2.823,0,0,0-.431.282,3.111,3.111,0,0,0-.387.364v-.9a2.514,2.514,0,0,1,.792-.525,2.789,2.789,0,0,1,1.069-.182,2.58,2.58,0,0,1,.836.131,1.916,1.916,0,0,1,.666.382,1.766,1.766,0,0,1,.443.62,2.092,2.092,0,0,1,.161.846,2.9,2.9,0,0,1-.1.79,2.442,2.442,0,0,1-.3.666,3.216,3.216,0,0,1-.51.6,7.225,7.225,0,0,1-.723.584q-.518.369-.854.631a3.773,3.773,0,0,0-.533.49,1.421,1.421,0,0,0-.277.456,1.6,1.6,0,0,0-.079.525h3.66V-6H8.822v-.364a3.033,3.033,0,0,1,.1-.831,2.157,2.157,0,0,1,.338-.682,3.784,3.784,0,0,1,.618-.646q.382-.323.936-.728a5.915,5.915,0,0,0,.669-.549,2.852,2.852,0,0,0,.433-.523,1.878,1.878,0,0,0,.233-.531A2.288,2.288,0,0,0,12.221-11.424Zm12.7,6.977h-4.8V-5.581h4.8ZM37.353,0H35.911V-10.89a3.336,3.336,0,0,1-.488.382,7.951,7.951,0,0,1-.721.426q-.4.211-.844.4a6.132,6.132,0,0,1-.866.29v-1.459A8.379,8.379,0,0,0,34-11.21q.532-.224,1.046-.5t.971-.58a7.71,7.71,0,0,0,.791-.593h.545Z" transform="translate(86 37)" fill="#212429"/>
    <path id="Contenido-3" data-name="Contenido" d="M8.033-9,5.01-4.447,7.98,0H6.3L4.535-2.918q-.167-.272-.4-.686H4.1q-.044.079-.413.686L1.89,0H.229L3.3-4.412.36-9H2.039l1.74,3.076q.193.343.378.7h.035L6.442-9ZM19.26-4.447h-4.8V-5.581h4.8ZM31.692,0H30.25V-10.89a3.336,3.336,0,0,1-.488.382,7.951,7.951,0,0,1-.721.426q-.4.211-.844.4a6.132,6.132,0,0,1-.866.29v-1.459a8.379,8.379,0,0,0,1.006-.356q.532-.224,1.046-.5t.971-.58a7.71,7.71,0,0,0,.791-.593h.545Z" transform="translate(86 65)" fill="#212429"/>
    <path id="Trazado_1035575" data-name="Trazado 1035575" d="M74.805,44.5h71.012" fill="none" stroke="#212429" stroke-width="1"/>
  </g>
</svg>
