<svg xmlns="http://www.w3.org/2000/svg" xmlns:xlink="http://www.w3.org/1999/xlink" width="93.934" height="93.934" viewBox="0 0 93.934 93.934">
  <defs>
    <filter id="Trazado_982547" x="0" y="0" width="93.934" height="93.934" filterUnits="userSpaceOnUse">
      <feOffset dy="3" input="SourceAlpha"/>
      <feGaussianBlur stdDeviation="3" result="blur"/>
      <feFlood flood-opacity="0.161"/>
      <feComposite operator="in" in2="blur"/>
      <feComposite in="SourceGraphic"/>
    </filter>
  </defs>
  <g id="Grupo_1177532" data-name="Grupo 1177532" transform="translate(-189.033 -1780)">
    <g id="Grupo_1176309" data-name="Grupo 1176309" transform="translate(0 -206)">
      <g id="Grupo_1172970" data-name="Grupo 1172970" transform="translate(-1 -9042)">
        <g id="Grupo_1171971" data-name="Grupo 1171971" transform="translate(199.033 11034)">
          <g id="Grupo_1167337" data-name="Grupo 1167337" transform="translate(0)">
            <g id="Grupo_1166720" data-name="Grupo 1166720">
              <g id="Grupo_1164305" data-name="Grupo 1164305">
                <g id="Grupo_1163948" data-name="Grupo 1163948">
                  <g id="Grupo_1158168" data-name="Grupo 1158168">
                    <g id="Grupo_1152576" data-name="Grupo 1152576">
                      <g id="Grupo_1148633" data-name="Grupo 1148633">
                        <g id="Grupo_1148525" data-name="Grupo 1148525">
                          <g transform="matrix(1, 0, 0, 1, -9, -6)" filter="url(#Trazado_982547)">
                            <g id="Trazado_982547-2" data-name="Trazado 982547" transform="translate(9 6)" fill="#e9f9fd">
                              <path d="M 37.966796875 74.43359375 C 33.04315185546875 74.43359375 28.26757431030273 73.46962738037109 23.77274131774902 71.56847381591797 C 19.43047523498535 69.73184967041016 15.53040790557861 67.10224914550781 12.18087482452393 63.75271987915039 C 8.831341743469238 60.4031867980957 6.201741218566895 56.50312042236328 4.365118980407715 52.16086196899414 C 2.463963508605957 47.66601943969727 1.499996900558472 42.89044189453125 1.499996900558472 37.966796875 C 1.499996900558472 33.04315185546875 2.463963508605957 28.26757431030273 4.365118980407715 23.77274131774902 C 6.201741218566895 19.43047523498535 8.831341743469238 15.53040790557861 12.18087482452393 12.18087482452393 C 15.53040790557861 8.831341743469238 19.43047523498535 6.201741218566895 23.77274131774902 4.365118980407715 C 28.26757431030273 2.463963508605957 33.04315185546875 1.499996900558472 37.966796875 1.499996900558472 C 42.89044189453125 1.499996900558472 47.66601943969727 2.463963508605957 52.16086196899414 4.365118980407715 C 56.50312042236328 6.201741218566895 60.4031867980957 8.831341743469238 63.75271987915039 12.18087482452393 C 67.10224914550781 15.53040790557861 69.73184967041016 19.43047523498535 71.56847381591797 23.77274131774902 C 73.46962738037109 28.26757431030273 74.43359375 33.04315185546875 74.43359375 37.966796875 C 74.43359375 42.89044189453125 73.46962738037109 47.66601943969727 71.56847381591797 52.16086196899414 C 69.73184967041016 56.50313186645508 67.10224914550781 60.4031867980957 63.75271987915039 63.75271987915039 C 60.4031867980957 67.10224914550781 56.50313186645508 69.73184967041016 52.16086196899414 71.56847381591797 C 47.66601943969727 73.46962738037109 42.89044189453125 74.43359375 37.966796875 74.43359375 Z" stroke="none"/>
                              <path d="M 37.966796875 3 C 33.2449836730957 3 28.66600799560547 3.924095153808594 24.35705947875977 5.746635437011719 C 20.19359588623047 7.507637023925781 16.45379638671875 10.02928161621094 13.24153518676758 13.24153518676758 C 10.02927398681641 16.45379638671875 7.507621765136719 20.19359588623047 5.746635437011719 24.35705947875977 C 3.924095153808594 28.66600799560547 3 33.2449836730957 3 37.966796875 C 3 42.6886100769043 3.924095153808594 47.26758575439453 5.746635437011719 51.57653427124023 C 7.507621765136719 55.73999786376953 10.02927398681641 59.47979736328125 13.24153518676758 62.69205856323242 C 16.45379638671875 65.90431976318359 20.19359588623047 68.42597198486328 24.35705947875977 70.18695831298828 C 28.66600799560547 72.00949859619141 33.2449836730957 72.93359375 37.966796875 72.93359375 C 42.6886100769043 72.93359375 47.26758575439453 72.00949859619141 51.57653427124023 70.18695831298828 C 55.73999786376953 68.42597198486328 59.47979736328125 65.90431976318359 62.69205856323242 62.69205856323242 C 65.90431976318359 59.47979736328125 68.42597198486328 55.73999786376953 70.18695831298828 51.57653427124023 C 72.00949859619141 47.26758575439453 72.93359375 42.6886100769043 72.93359375 37.966796875 C 72.93359375 33.2449836730957 72.00949859619141 28.66600799560547 70.18695831298828 24.35705947875977 C 68.42597198486328 20.19359588623047 65.90431976318359 16.45379638671875 62.69205856323242 13.24153518676758 C 59.47979736328125 10.02928161621094 55.73999786376953 7.507637023925781 51.57653427124023 5.746635437011719 C 47.26758575439453 3.924095153808594 42.6886100769043 3 37.966796875 3 M 37.966796875 0 C 58.93528366088867 0 75.93359375 16.99832153320312 75.93359375 37.966796875 C 75.93359375 58.93528366088867 58.93528366088867 75.93359375 37.966796875 75.93359375 C 16.99831008911133 75.93359375 0 58.93528366088867 0 37.966796875 C 0 16.99832153320312 16.99831008911133 0 37.966796875 0 Z" stroke="none" fill="#1d7083"/>
                            </g>
                          </g>
                        </g>
                      </g>
                    </g>
                  </g>
                </g>
              </g>
            </g>
          </g>
        </g>
      </g>
    </g>
    <g id="tutor_5326603" transform="translate(211.237 1801.26)">
      <g id="Artboard_25" data-name="Artboard 25" transform="translate(1.734 1.729)">
        <path id="Trazado_1035299" data-name="Trazado 1035299" d="M24.029,41.372H4.937A2.937,2.937,0,0,1,2,38.435v-23.5A2.937,2.937,0,0,1,4.937,12H24.029Z" transform="translate(-2 -4.657)" fill="#ffc239"/>
        <path id="Trazado_1035300" data-name="Trazado 1035300" d="M2,14.937v3.892A33.1,33.1,0,0,0,24.029,40.7V12H4.937A2.937,2.937,0,0,0,2,14.937Z" transform="translate(-2 -4.657)" fill="#ffd55d"/>
        <path id="Trazado_1035301" data-name="Trazado 1035301" d="M12.452,28a2.2,2.2,0,0,0-2.13,1.638l-1.74,7.776a.176.176,0,0,1-.338,0l-.441-2.2a1.652,1.652,0,0,0-1.6-1.336H4v1.469H6.2a.176.176,0,0,1,.169.14l.441,2.2a1.652,1.652,0,0,0,1.593,1.329,1.63,1.63,0,0,0,1.6-1.285L11.74,30a.734.734,0,0,1,.734-.536h7.681V28Z" transform="translate(-2.531 -8.908)" fill="#f6f8ff"/>
        <path id="Trazado_1035302" data-name="Trazado 1035302" d="M22.124,32.34l-2.386,2.68-2.386-2.68-1.1.969,2.5,2.82-2.5,2.82,1.1.969,2.386-2.68,2.386,2.68,1.1-.969-2.5-2.82,2.5-2.82Z" transform="translate(-5.786 -10.061)" fill="#f6f8ff"/>
        <path id="Trazado_1035303" data-name="Trazado 1035303" d="M28.812,42l-5.7,1.667A4.406,4.406,0,0,0,20,47.874v8.812H44.966V47.874a4.406,4.406,0,0,0-3.113-4.208L36.155,42Z" transform="translate(-6.783 -12.628)" fill="#e2e7f7"/>
        <path id="Trazado_1035304" data-name="Trazado 1035304" d="M39.373,34.8v5.287l-2.937,2.2H34.967l-2.937-2.2V34.8Z" transform="translate(-9.979 -10.715)" fill="#f4c8ad"/>
        <path id="Trazado_1035305" data-name="Trazado 1035305" d="M32,37.727a8.033,8.033,0,0,0,7.343,0V34.79H32Z" transform="translate(-9.971 -10.712)" fill="#f2b9a1"/>
        <path id="Trazado_1035306" data-name="Trazado 1035306" d="M45.76,3.725a3.671,3.671,0,0,1,6.785,1.946V20.937c0,3.3,2.386,6.4,5.14,8.231H55.864a9.9,9.9,0,0,1-9.025-5.838Z" transform="translate(-13.627 -2)" fill="#393a3a"/>
        <path id="Trazado_1035307" data-name="Trazado 1035307" d="M22,18.889V12.28A10.28,10.28,0,0,1,32.28,2h1.469a10.28,10.28,0,0,1,10.28,10.28v6.609Z" transform="translate(-7.314 -2)" fill="#393a3a"/>
        <path id="Trazado_1035308" data-name="Trazado 1035308" d="M45.032,12.28A10.28,10.28,0,0,0,34.752,2H33.283a10.221,10.221,0,0,0-6.807,2.592c-2.475,6.087,2.4,9.054,2.4,9.054L40.81,18.889h4.222Z" transform="translate(-8.317 -2)" fill="#434444"/>
        <path id="Trazado_1035309" data-name="Trazado 1035309" d="M47.952,21a2.937,2.937,0,0,1,0,5.874H47.82Z" transform="translate(-14.174 -7.048)" fill="#f2b9a1"/>
        <path id="Trazado_1035310" data-name="Trazado 1035310" d="M24.937,21a2.937,2.937,0,1,0,0,5.874h.132Z" transform="translate(-7.314 -7.048)" fill="#f2b9a1"/>
        <path id="Trazado_1035311" data-name="Trazado 1035311" d="M26,16.406v6.609a8.077,8.077,0,1,0,16.155,0V16.406H35.546A4.406,4.406,0,0,1,31.14,12v1.469A2.937,2.937,0,0,1,28.2,16.406Z" transform="translate(-8.377 -4.657)" fill="#f4c8ad"/>
        <path id="Trazado_1035312" data-name="Trazado 1035312" d="M32.2,12v1.469A2.937,2.937,0,0,1,30,16.3v6.711a8.077,8.077,0,0,0,3.627,6.734,5.426,5.426,0,0,0,5.963,0,8.077,8.077,0,0,0,3.627-6.734V16.406H36.609A4.406,4.406,0,0,1,32.2,12Z" transform="translate(-9.44 -4.657)" fill="#fbdac2"/>
        <path id="Trazado_1035313" data-name="Trazado 1035313" d="M43.162,42.646l-1.491,5.228L38,44.2,40.937,42Z" transform="translate(-11.565 -12.628)" fill="#f6f8ff"/>
        <path id="Trazado_1035314" data-name="Trazado 1035314" d="M36,45h1.469V57.483H36Z" transform="translate(-11.034 -13.425)" fill="#cfd4e2"/>
        <path id="Trazado_1035315" data-name="Trazado 1035315" d="M35.958,34.1a3.113,3.113,0,0,1-2.878-1.924l1.351-.558a1.66,1.66,0,0,0,3.055,0l1.351.558A3.113,3.113,0,0,1,35.958,34.1Z" transform="translate(-10.258 -9.87)" fill="#393a3a"/>
        <path id="Trazado_1035316" data-name="Trazado 1035316" d="M42.155,20.734H40.686A.734.734,0,0,0,39.952,20H35.546a.734.734,0,0,0-.734.734v.734H33.343v-.734A.734.734,0,0,0,32.609,20H28.2a.734.734,0,0,0-.734.734H26V22.2h1.469v.734a2.2,2.2,0,0,0,2.2,2.2H31.14a2.2,2.2,0,0,0,2.2-2.2h1.469a2.2,2.2,0,0,0,2.2,2.2h1.469a2.2,2.2,0,0,0,2.2-2.2V22.2h1.469Zm-10.28,2.2a.734.734,0,0,1-.734.734H29.671a.734.734,0,0,1-.734-.734V21.469h2.937Zm7.343,0a.734.734,0,0,1-.734.734H37.014a.734.734,0,0,1-.734-.734V21.469h2.937Z" transform="translate(-8.377 -6.782)" fill="#2a2d40"/>
        <path id="Trazado_1035317" data-name="Trazado 1035317" d="M29,42.646l1.469,5.228L34.162,44.2,31.225,42Z" transform="translate(-9.174 -12.628)" fill="#f6f8ff"/>
        <g id="Grupo_1176815" data-name="Grupo 1176815" transform="translate(17.623 36.715)">
          <path id="Trazado_1035318" data-name="Trazado 1035318" d="M26,53h1.469v6.609H26Z" transform="translate(-26 -52.266)" fill="#cfd4e2"/>
          <path id="Trazado_1035319" data-name="Trazado 1035319" d="M46,53h1.469v6.609H46Z" transform="translate(-31.314 -52.266)" fill="#cfd4e2"/>
          <path id="Trazado_1035320" data-name="Trazado 1035320" d="M33,55h1.469v1.469H33Z" transform="translate(-27.86 -52.797)" fill="#cfd4e2"/>
          <path id="Trazado_1035321" data-name="Trazado 1035321" d="M33,52h1.469v1.469H33Z" transform="translate(-27.86 -52)" fill="#cfd4e2"/>
          <path id="Trazado_1035322" data-name="Trazado 1035322" d="M33,58h1.469v1.469H33Z" transform="translate(-27.86 -53.594)" fill="#cfd4e2"/>
        </g>
      </g>
      <g id="Layer_33" data-name="Layer 33" transform="translate(1 0.98)">
        <path id="Trazado_1035323" data-name="Trazado 1035323" d="M33,55h1.469v1.469H33Z" transform="translate(-9.502 -15.333)"/>
        <path id="Trazado_1035324" data-name="Trazado 1035324" d="M33,52h1.469v1.469H33Z" transform="translate(-9.502 -14.536)"/>
        <path id="Trazado_1035325" data-name="Trazado 1035325" d="M33,58h1.469v1.469H33Z" transform="translate(-9.502 -16.13)"/>
        <path id="Trazado_1035326" data-name="Trazado 1035326" d="M35.958,32.633a1.652,1.652,0,0,1-1.527-1.013l-1.351.558a3.113,3.113,0,0,0,5.757,0l-1.351-.558A1.652,1.652,0,0,1,35.958,32.633Z" transform="translate(-9.524 -9.121)"/>
        <path id="Trazado_1035327" data-name="Trazado 1035327" d="M22.124,39.918l1.1-.969-2.5-2.82,2.5-2.82-1.1-.969-2.386,2.68-2.386-2.68-1.1.969,2.5,2.82-2.5,2.82,1.1.969,2.386-2.68Z" transform="translate(-5.052 -9.312)"/>
        <path id="Trazado_1035328" data-name="Trazado 1035328" d="M42.855,8.338H41.386V5.4a4.406,4.406,0,0,0-7.7-2.937A10.97,10.97,0,0,0,28.169.995H26.7A11.014,11.014,0,0,0,16.332,8.338H4.671A3.671,3.671,0,0,0,1,12.009v23.5a3.671,3.671,0,0,0,3.671,3.671h9.546v6.609a.734.734,0,0,0,.734.734H39.918a.734.734,0,0,0,.734-.734V39.178h2.2a3.671,3.671,0,0,0,3.671-3.671v-23.5A3.671,3.671,0,0,0,42.855,8.338Zm0,1.469a2.2,2.2,0,0,1,2.2,2.2v15.42c-1.931-1.623-3.671-4.031-3.671-6.756V9.806ZM36.981,2.463A2.937,2.937,0,0,1,39.918,5.4V20.666a10.523,10.523,0,0,0,3.752,7.49,9.164,9.164,0,0,1-7.93-5.14c.088-.25.162-.507.228-.734a3.671,3.671,0,0,0,3.216-3.664V12.009A11.014,11.014,0,0,0,34.91,3.322a2.937,2.937,0,0,1,2.071-.859ZM23.616,31.909l1.968,1.469-2.2,2.2-.94-3.326Zm7.637,0,1.175.345-.947,3.319-2.2-2.2Zm-.881-1.175-2.445,1.836h-.984L24.5,30.734v-2.35a8.65,8.65,0,0,0,5.874,0Zm-2.937-3.3a7.343,7.343,0,0,1-7.343-7.343V17.149h.734v.734a2.2,2.2,0,0,0,2.2,2.2H24.5a2.2,2.2,0,0,0,2.2-2.2h1.469a2.2,2.2,0,0,0,2.2,2.2h1.469a2.2,2.2,0,0,0,2.2-2.2v-.734h.734v2.937A7.343,7.343,0,0,1,27.435,27.429Zm8.812-10.882a2.2,2.2,0,0,1,0,4.149V16.547Zm-1.469-.866h-.734a.734.734,0,0,0-.734-.734H28.9a.734.734,0,0,0-.734.734v.734H26.7v-.734a.734.734,0,0,0-.734-.734H21.56a.734.734,0,0,0-.734.734h-.734V14.212H21.56a3.672,3.672,0,0,0,3.275-2,5.14,5.14,0,0,0,4.068,2h5.874Zm-2.2.734v1.469a.734.734,0,0,1-.734.734H30.372a.734.734,0,0,1-.734-.734V16.415Zm-7.343,0v1.469a.734.734,0,0,1-.734.734H23.029a.734.734,0,0,1-.734-.734V16.415ZM18.623,20.7a2.2,2.2,0,0,1,0-4.149V20.7ZM26.7,2.463h1.469a9.546,9.546,0,0,1,9.546,9.546v3.671A3.554,3.554,0,0,0,36.246,15v-1.52a.734.734,0,0,0-.734-.734H28.9a3.671,3.671,0,0,1-3.671-3.671.734.734,0,1,0-1.469,0V10.54a2.2,2.2,0,0,1-2.2,2.2h-2.2a.734.734,0,0,0-.734.734V15.02a3.554,3.554,0,0,0-1.469.661V12.009A9.546,9.546,0,0,1,26.7,2.463ZM4.671,37.71a2.2,2.2,0,0,1-2.2-2.2v-23.5a2.2,2.2,0,0,1,2.2-2.2H15.906a10.882,10.882,0,0,0-.22,2.2v6.609a3.613,3.613,0,0,0,.734,2.2H11.655a2.2,2.2,0,0,0-2.13,1.638l-1.74,7.776a.176.176,0,0,1-.338,0l-.441-2.2a1.652,1.652,0,0,0-1.6-1.336H3.2v1.469h2.2a.176.176,0,0,1,.169.14l.441,2.2a1.652,1.652,0,0,0,1.593,1.329,1.63,1.63,0,0,0,1.6-1.285l1.733-7.725a.734.734,0,0,1,.734-.536h7.255a8.885,8.885,0,0,0,4.1,5.419V30.55l-5.184,1.513a5.14,5.14,0,0,0-3.627,4.912v.734Zm11.014-.734a3.671,3.671,0,0,1,2.585-3.5l2.761-.808,1.263,4.509a.734.734,0,0,0,.521.514.786.786,0,0,0,.213.022.734.734,0,0,0,.521-.213l3.15-3.157V45.053H20.826V39.178H19.357v5.874H15.686Zm23.5,8.077H35.512V39.178H34.043v5.874H28.169V34.339l3.15,3.157a.734.734,0,0,0,.521.213.786.786,0,0,0,.184,0,.734.734,0,0,0,.521-.514l1.292-4.509,2.754.8a3.671,3.671,0,0,1,2.592,3.488Zm3.671-7.343h-2.2v-.734a5.14,5.14,0,0,0-3.671-4.912l-5.14-1.513V27.708a8.863,8.863,0,0,0,3.121-3.069,10.655,10.655,0,0,0,9.01,4.993h1.087v5.874A2.2,2.2,0,0,1,42.855,37.71Z" transform="translate(-1 -0.98)"/>
      </g>
    </g>
  </g>
</svg>
