<svg xmlns="http://www.w3.org/2000/svg" xmlns:xlink="http://www.w3.org/1999/xlink" width="400" height="278.449" viewBox="0 0 400 278.449">
  <defs>
    <clipPath id="clip-path">
      <rect id="Rectángulo_416041" data-name="Rectángulo 416041" width="400" height="278.449" transform="translate(1020 3581.551)" fill="#fff" stroke="#707070" stroke-width="1" opacity="0.5"/>
    </clipPath>
    <clipPath id="clip-path-2">
      <rect id="Rectángulo_416040" data-name="Rectángulo 416040" width="325.822" height="277.949" fill="none"/>
    </clipPath>
    <clipPath id="clip-path-4">
      <rect id="Rectángulo_416015" data-name="Rectángulo 416015" width="242.798" height="168.424" fill="none"/>
    </clipPath>
    <clipPath id="clip-path-5">
      <rect id="Rectángulo_416016" data-name="Rectángulo 416016" width="31.033" height="82.992" fill="none"/>
    </clipPath>
    <clipPath id="clip-path-6">
      <rect id="Rectángulo_416017" data-name="Rectángulo 416017" width="20.225" height="70.911" fill="none"/>
    </clipPath>
    <clipPath id="clip-path-7">
      <rect id="Rectángulo_416018" data-name="Rectángulo 416018" width="9.265" height="11.74" fill="none"/>
    </clipPath>
    <clipPath id="clip-path-8">
      <rect id="Rectángulo_416019" data-name="Rectángulo 416019" width="9.264" height="11.74" fill="none"/>
    </clipPath>
    <clipPath id="clip-path-9">
      <rect id="Rectángulo_416020" data-name="Rectángulo 416020" width="5.164" height="9.222" fill="none"/>
    </clipPath>
    <clipPath id="clip-path-10">
      <rect id="Rectángulo_416021" data-name="Rectángulo 416021" width="10.207" height="5.316" fill="none"/>
    </clipPath>
    <clipPath id="clip-path-12">
      <rect id="Rectángulo_416023" data-name="Rectángulo 416023" width="34.289" height="51.649" fill="none"/>
    </clipPath>
    <clipPath id="clip-path-13">
      <rect id="Rectángulo_416029" data-name="Rectángulo 416029" width="16.531" height="19.904" fill="none"/>
    </clipPath>
    <clipPath id="clip-path-14">
      <rect id="Rectángulo_416030" data-name="Rectángulo 416030" width="29.632" height="19.904" fill="none"/>
    </clipPath>
    <clipPath id="clip-path-15">
      <rect id="Rectángulo_416031" data-name="Rectángulo 416031" width="77.162" height="19.904" fill="none"/>
    </clipPath>
    <clipPath id="clip-path-16">
      <rect id="Rectángulo_416032" data-name="Rectángulo 416032" width="26.082" height="2.502" fill="none"/>
    </clipPath>
    <clipPath id="clip-path-17">
      <rect id="Rectángulo_416033" data-name="Rectángulo 416033" width="20.927" height="14.056" fill="none"/>
    </clipPath>
    <clipPath id="clip-path-18">
      <rect id="Rectángulo_416034" data-name="Rectángulo 416034" width="20.609" height="13.843" fill="none"/>
    </clipPath>
    <clipPath id="clip-path-19">
      <rect id="Rectángulo_416035" data-name="Rectángulo 416035" width="27.462" height="13.843" fill="none"/>
    </clipPath>
    <clipPath id="clip-path-20">
      <rect id="Rectángulo_416037" data-name="Rectángulo 416037" width="19.897" height="50.191" fill="none"/>
    </clipPath>
    <clipPath id="clip-path-21">
      <rect id="Rectángulo_416038" data-name="Rectángulo 416038" width="118.703" height="10.485" fill="none"/>
    </clipPath>
  </defs>
  <g id="Enmascarar_grupo_1098807" data-name="Enmascarar grupo 1098807" transform="translate(-1020 -3581.551)" clip-path="url(#clip-path)">
    <g id="Grupo_1177613" data-name="Grupo 1177613" transform="translate(983.689 3518.935)">
      <g id="Grupo_1177612" data-name="Grupo 1177612" transform="translate(73.4 62.615)" clip-path="url(#clip-path-2)">
        <rect id="Rectángulo_416013" data-name="Rectángulo 416013" width="250.677" height="177.981" transform="translate(29.795 21.841)" fill="#fff2e3"/>
        <rect id="Rectángulo_416014" data-name="Rectángulo 416014" width="242.798" height="168.424" transform="translate(33.735 26.336)" fill="#2c4556"/>
        <g id="Grupo_1177611" data-name="Grupo 1177611">
          <g id="Grupo_1177610" data-name="Grupo 1177610" clip-path="url(#clip-path-2)">
            <g id="Grupo_1177558" data-name="Grupo 1177558" transform="translate(33.735 26.336)" opacity="0.46">
              <g id="Grupo_1177557" data-name="Grupo 1177557">
                <g id="Grupo_1177556" data-name="Grupo 1177556" clip-path="url(#clip-path-4)">
                  <path id="Trazado_1038330" data-name="Trazado 1038330" d="M44.349,34.623S236.961,38.9,259.615,52.292s-6.566,14.561-29.108,33.757,53.8,77.772,56.64,117V34.623Z" transform="translate(-44.349 -34.623)" fill="#1a2d38"/>
                </g>
              </g>
            </g>
            <path id="Trazado_1038331" data-name="Trazado 1038331" d="M290.329,270.441H34.725a3.835,3.835,0,0,1-3.835-3.835v-.078a3.835,3.835,0,0,1,3.835-3.835h255.6a3.835,3.835,0,0,1,3.835,3.835v.078a3.835,3.835,0,0,1-3.835,3.835" transform="translate(-7.393 -62.872)" fill="#b5aaa0"/>
            <ellipse id="Elipse_12296" data-name="Elipse 12296" cx="7.439" cy="24.091" rx="7.439" ry="24.091" transform="translate(61.27 37.997)" fill="none" stroke="#d3cabe" stroke-miterlimit="10" stroke-width="1"/>
            <path id="Trazado_1038332" data-name="Trazado 1038332" d="M87.437,83.714c-11.483,6.721-22.474,9.3-24.549,5.75s5.55-11.869,17.033-18.591,22.474-9.3,24.549-5.75S98.92,76.992,87.437,83.714Z" transform="translate(-14.97 -15.205)" fill="none" stroke="#d3cabe" stroke-miterlimit="10" stroke-width="1"/>
            <path id="Trazado_1038333" data-name="Trazado 1038333" d="M79.921,83.714c11.483,6.721,22.474,9.3,24.549,5.75S98.92,77.594,87.437,70.873s-22.474-9.3-24.549-5.75S68.438,76.992,79.921,83.714Z" transform="translate(-14.97 -15.205)" fill="none" stroke="#d3cabe" stroke-miterlimit="10" stroke-width="1"/>
            <path id="Trazado_1038334" data-name="Trazado 1038334" d="M92.706,80.532a3.471,3.471,0,1,1-3.471-3.47A3.471,3.471,0,0,1,92.706,80.532Z" transform="translate(-20.527 -18.444)" fill="none" stroke="#d3cabe" stroke-miterlimit="10" stroke-width="1"/>
            <path id="Trazado_1038335" data-name="Trazado 1038335" d="M86.131,185.36v14.019l12.141,7.009,12.14-7.009V185.36l-12.14-7.01Z" transform="translate(-20.614 -42.686)" fill="#2c4556"/>
            <path id="Trazado_1038336" data-name="Trazado 1038336" d="M86.131,185.36v14.019l12.141,7.009,12.14-7.009V185.36l-12.14-7.01Z" transform="translate(-20.614 -42.686)" fill="none" stroke="#d3cabe" stroke-miterlimit="10" stroke-width="1"/>
            <line id="Línea_838" data-name="Línea 838" x2="11.079" y2="7.603" transform="translate(89.798 156.693)" fill="#2c4556"/>
            <line id="Línea_839" data-name="Línea 839" x2="11.079" y2="7.603" transform="translate(89.798 156.693)" fill="none" stroke="#d3cabe" stroke-miterlimit="10" stroke-width="1"/>
            <line id="Línea_840" data-name="Línea 840" x1="12.254" y1="7.335" transform="translate(53.263 135.339)" fill="#2c4556"/>
            <line id="Línea_841" data-name="Línea 841" x1="12.254" y1="7.335" transform="translate(53.263 135.339)" fill="none" stroke="#d3cabe" stroke-miterlimit="10" stroke-width="1"/>
            <line id="Línea_842" data-name="Línea 842" y2="15.918" transform="translate(77.657 163.702)" fill="#2c4556"/>
            <line id="Línea_843" data-name="Línea 843" y2="15.918" transform="translate(77.657 163.702)" fill="none" stroke="#d3cabe" stroke-miterlimit="10" stroke-width="1"/>
            <path id="Trazado_1038337" data-name="Trazado 1038337" d="M69.324,175.006a2.218,2.218,0,1,1-2.219,2.219,2.219,2.219,0,0,1,2.219-2.219" transform="translate(-16.061 -41.885)" fill="#2c4556"/>
            <path id="Trazado_1038338" data-name="Trazado 1038338" d="M69.324,175.006a2.218,2.218,0,1,1-2.219,2.219A2.219,2.219,0,0,1,69.324,175.006Z" transform="translate(-16.061 -41.885)" fill="none" stroke="#d3cabe" stroke-miterlimit="10" stroke-width="1"/>
            <path id="Trazado_1038339" data-name="Trazado 1038339" d="M85.433,184.146a2.218,2.218,0,1,1-2.218,2.219,2.219,2.219,0,0,1,2.218-2.219" transform="translate(-19.916 -44.073)" fill="#2c4556"/>
            <path id="Trazado_1038340" data-name="Trazado 1038340" d="M85.433,184.146a2.218,2.218,0,1,1-2.218,2.219A2.219,2.219,0,0,1,85.433,184.146Z" transform="translate(-19.916 -44.073)" fill="none" stroke="#d3cabe" stroke-miterlimit="10" stroke-width="1"/>
            <path id="Trazado_1038341" data-name="Trazado 1038341" d="M101.4,233.221a2.218,2.218,0,1,1-2.219,2.218,2.219,2.219,0,0,1,2.219-2.218" transform="translate(-23.739 -55.818)" fill="#2c4556"/>
            <path id="Trazado_1038342" data-name="Trazado 1038342" d="M101.4,233.221a2.218,2.218,0,1,1-2.219,2.218A2.219,2.219,0,0,1,101.4,233.221Z" transform="translate(-23.739 -55.818)" fill="none" stroke="#d3cabe" stroke-miterlimit="10" stroke-width="1"/>
            <path id="Trazado_1038343" data-name="Trazado 1038343" d="M100.943,212.293a2.218,2.218,0,1,1-2.219,2.219,2.219,2.219,0,0,1,2.219-2.219" transform="translate(-23.628 -50.81)" fill="#2c4556"/>
            <path id="Trazado_1038344" data-name="Trazado 1038344" d="M100.943,212.293a2.218,2.218,0,1,1-2.219,2.219A2.219,2.219,0,0,1,100.943,212.293Z" transform="translate(-23.628 -50.81)" fill="none" stroke="#d3cabe" stroke-miterlimit="10" stroke-width="1"/>
            <path id="Trazado_1038345" data-name="Trazado 1038345" d="M117.009,202.842a2.218,2.218,0,1,1-2.219,2.219,2.219,2.219,0,0,1,2.219-2.219" transform="translate(-27.473 -48.548)" fill="#2c4556"/>
            <path id="Trazado_1038346" data-name="Trazado 1038346" d="M117.009,202.842a2.218,2.218,0,1,1-2.219,2.219A2.219,2.219,0,0,1,117.009,202.842Z" transform="translate(-27.473 -48.548)" fill="none" stroke="#d3cabe" stroke-miterlimit="10" stroke-width="1"/>
            <path id="Trazado_1038347" data-name="Trazado 1038347" d="M132.142,213.227a2.218,2.218,0,1,1-2.219,2.219,2.219,2.219,0,0,1,2.219-2.219" transform="translate(-31.095 -51.033)" fill="#2c4556"/>
            <path id="Trazado_1038348" data-name="Trazado 1038348" d="M132.142,213.227a2.218,2.218,0,1,1-2.219,2.219A2.219,2.219,0,0,1,132.142,213.227Z" transform="translate(-31.095 -51.033)" fill="none" stroke="#d3cabe" stroke-miterlimit="10" stroke-width="1"/>
            <path id="Trazado_1038349" data-name="Trazado 1038349" d="M305.6,159.454l-.166,23.737a16.385,16.385,0,1,0,11.244.038l.386-23.736" transform="translate(-70.512 -38.163)" fill="none" stroke="#d3cabe" stroke-miterlimit="10" stroke-width="1"/>
            <path id="Trazado_1038350" data-name="Trazado 1038350" d="M297.973,207.346a14.1,14.1,0,1,0,27.506.094" transform="translate(-71.229 -49.626)" fill="none" stroke="#d3cabe" stroke-miterlimit="10" stroke-width="1"/>
            <path id="Trazado_1038351" data-name="Trazado 1038351" d="M325.881,206.885c0,1-6.23,1.793-13.906,1.767s-13.9-.86-13.893-1.861,6.229-1.793,13.9-1.767S325.884,205.883,325.881,206.885Z" transform="translate(-71.342 -49.07)" fill="none" stroke="#d3cabe" stroke-miterlimit="10" stroke-width="1"/>
            <path id="Trazado_1038352" data-name="Trazado 1038352" d="M321.975,156.052a2.116,2.116,0,0,1-2.124,2.11l-11.464-.04a2.116,2.116,0,1,1,.014-4.232l11.464.039A2.117,2.117,0,0,1,321.975,156.052Z" transform="translate(-73.304 -36.832)" fill="none" stroke="#d3cabe" stroke-miterlimit="10" stroke-width="1"/>
            <path id="Trazado_1038353" data-name="Trazado 1038353" d="M312.294,217.132a1.491,1.491,0,1,1-.623-2.014A1.49,1.49,0,0,1,312.294,217.132Z" transform="translate(-74.071 -51.444)" fill="none" stroke="#d3cabe" stroke-miterlimit="10" stroke-width="1"/>
            <path id="Trazado_1038354" data-name="Trazado 1038354" d="M325.1,216.477a1.491,1.491,0,1,1-.623-2.015A1.491,1.491,0,0,1,325.1,216.477Z" transform="translate(-77.135 -51.287)" fill="none" stroke="#d3cabe" stroke-miterlimit="10" stroke-width="1"/>
            <path id="Trazado_1038355" data-name="Trazado 1038355" d="M318.871,224.08a1.491,1.491,0,1,1-.623-2.015A1.492,1.492,0,0,1,318.871,224.08Z" transform="translate(-75.645 -53.107)" fill="none" stroke="#d3cabe" stroke-miterlimit="10" stroke-width="1"/>
            <path id="Trazado_1038356" data-name="Trazado 1038356" d="M316.311,83.891H300.586l-7.862,13.617,7.862,13.617h15.724l7.862-13.617Z" transform="translate(-70.06 -20.078)" fill="none" stroke="#d3cabe" stroke-miterlimit="10" stroke-width="1"/>
            <path id="Trazado_1038357" data-name="Trazado 1038357" d="M303.923,70.893H292.507L286.8,80.78l5.708,9.886h11.416l5.708-9.886Z" transform="translate(-68.641 -16.967)" fill="none" stroke="#d3cabe" stroke-miterlimit="10" stroke-width="1"/>
            <path id="Trazado_1038358" data-name="Trazado 1038358" d="M68.3,147.369a2.3,2.3,0,1,1-2.3-2.3A2.3,2.3,0,0,1,68.3,147.369Z" transform="translate(-15.245 -34.72)" fill="none" stroke="#d3cabe" stroke-miterlimit="10" stroke-width="0.5"/>
            <path id="Trazado_1038359" data-name="Trazado 1038359" d="M350.571,55.991a7.342,7.342,0,1,1-7.343-7.343A7.342,7.342,0,0,1,350.571,55.991Z" transform="translate(-80.39 -11.643)" fill="none" stroke="#d3cabe" stroke-miterlimit="10" stroke-width="1.268"/>
            <path id="Trazado_1038360" data-name="Trazado 1038360" d="M278.114,52.32a3.671,3.671,0,1,1-3.671-3.671A3.671,3.671,0,0,1,278.114,52.32Z" transform="translate(-64.805 -11.643)" fill="none" stroke="#d3cabe" stroke-miterlimit="10" stroke-width="0.634"/>
            <path id="Trazado_1038361" data-name="Trazado 1038361" d="M129.39,49.974a2.29,2.29,0,1,1-2.29-2.29A2.289,2.289,0,0,1,129.39,49.974Z" transform="translate(-29.872 -11.413)" fill="none" stroke="#d3cabe" stroke-miterlimit="10" stroke-width="0.634"/>
            <path id="Trazado_1038362" data-name="Trazado 1038362" d="M348.054,137.017a3.671,3.671,0,1,1-3.671-3.671A3.671,3.671,0,0,1,348.054,137.017Z" transform="translate(-81.545 -31.915)" fill="none" stroke="#d3cabe" stroke-miterlimit="10" stroke-width="1"/>
            <path id="Trazado_1038363" data-name="Trazado 1038363" d="M225.121,254.3l-32.828,1.117L159.465,254.3s-25.02,51.639-.952,82.992h67.561c24.067-31.353-.952-82.992-.952-82.992" transform="translate(-35.436 -60.863)" fill="#2c4556"/>
            <g id="Grupo_1177561" data-name="Grupo 1177561" transform="translate(112.622 193.436)" opacity="0.45">
              <g id="Grupo_1177560" data-name="Grupo 1177560">
                <g id="Grupo_1177559" data-name="Grupo 1177559" clip-path="url(#clip-path-5)">
                  <path id="Trazado_1038364" data-name="Trazado 1038364" d="M158.512,337.291h9.237c-17.059-31.419,11.341-82.324,11.341-82.324l-19.625-.668s-25.02,51.64-.952,82.992" transform="translate(-148.057 -254.299)" fill="#1b2e38"/>
                </g>
              </g>
            </g>
            <path id="Trazado_1038365" data-name="Trazado 1038365" d="M241.046,135.246c-1.476-10.451-6.762-22.008-17.336-25.574-4.679-1.578-17.7-6.147-24.068-11.926s-2.981-16.722-2.981-16.722H182.4s3.382,10.943-2.981,16.722-19.389,10.348-24.068,11.926c-10.574,3.566-15.861,15.124-17.336,25.574-.96,6.8-1.347,40.051-1.5,62.447A15.687,15.687,0,0,0,156.5,212.886l.2-.058s16.967,9.222,32.828,9.222,32.828-9.222,32.828-9.222l20.287,5.779s-.122-72.91-1.6-83.361" transform="translate(-32.672 -19.392)" fill="#4b72b7"/>
            <path id="Trazado_1038366" data-name="Trazado 1038366" d="M267.485,144.187c-1.476-10.451-6.762-22.008-17.336-25.574l-.675-.229c-1.593,12.433-5.042,44.822.675,55.4,3.237,5.989,11.036,7.688,18.587,7.758-.232-16.824-.616-32.86-1.251-37.352" transform="translate(-59.111 -28.334)" fill="#fff2e3"/>
            <path id="Trazado_1038367" data-name="Trazado 1038367" d="M137.994,144.187c1.476-10.451,6.762-22.008,17.336-25.574.207-.069.437-.148.675-.229,1.594,12.433,5.042,44.822-.675,55.4-3.237,5.989-11.036,7.688-18.587,7.758.232-16.824.616-32.86,1.251-37.352" transform="translate(-32.728 -28.334)" fill="#fff2e3"/>
            <path id="Trazado_1038368" data-name="Trazado 1038368" d="M159.335,209.816l29.111,11.244s-.3,9.221,11.723,4.057l7.969-1.845s6.04,35.982,27.874,43.9A133.9,133.9,0,0,0,226.7,238.4l20.287,5.779s-.042-24.822-.37-47.576l-91.954-8.746Z" transform="translate(-37.017 -44.96)" fill="#2c4556"/>
            <path id="Trazado_1038369" data-name="Trazado 1038369" d="M206.211,118.854s6.336,13.664,16.109,9.606.89-19.279.89-19.279Z" transform="translate(-49.354 -26.131)" fill="#fff2e3"/>
            <path id="Trazado_1038370" data-name="Trazado 1038370" d="M199.74,118.772s-6.336,13.664-16.109,9.606-.424-19.538-.424-19.538Z" transform="translate(-42.883 -26.05)" fill="#fff2e3"/>
            <path id="Trazado_1038371" data-name="Trazado 1038371" d="M268.054,144.7c-1.318-9.339-5.685-19.558-14.145-24.172-1.543,6.176-3.5,17.167-3.93,34.253-.737,29.139-.615,67.5-.615,67.5l20.287,5.779s-.122-72.91-1.6-83.361" transform="translate(-59.681 -28.847)" fill="#e48464"/>
            <path id="Trazado_1038372" data-name="Trazado 1038372" d="M138.014,144.7c1.318-9.339,5.684-19.558,14.145-24.172,1.543,6.176,3.5,17.167,3.93,34.253.737,29.139.615,67.5.615,67.5l-.2.058a15.686,15.686,0,0,1-19.986-15.193c.153-22.4.541-55.646,1.5-62.447" transform="translate(-32.672 -28.847)" fill="#e48464"/>
            <line id="Línea_844" data-name="Línea 844" y2="109.935" transform="translate(156.857 92.723)" fill="none" stroke="#2c4556" stroke-miterlimit="10" stroke-width="0.776"/>
            <path id="Trazado_1038373" data-name="Trazado 1038373" d="M200.947,146.6a2.735,2.735,0,1,1-2.735-2.735,2.735,2.735,0,0,1,2.735,2.735" transform="translate(-46.785 -34.431)" fill="#fff2e3"/>
            <path id="Trazado_1038374" data-name="Trazado 1038374" d="M200.947,179.248a2.735,2.735,0,1,1-2.735-2.735,2.735,2.735,0,0,1,2.735,2.735" transform="translate(-46.785 -42.246)" fill="#fff2e3"/>
            <path id="Trazado_1038375" data-name="Trazado 1038375" d="M200.947,211.9a2.735,2.735,0,1,1-2.735-2.735,2.735,2.735,0,0,1,2.735,2.735" transform="translate(-46.785 -50.06)" fill="#fff2e3"/>
            <path id="Trazado_1038376" data-name="Trazado 1038376" d="M200.947,244.549a2.735,2.735,0,1,1-2.735-2.735,2.735,2.735,0,0,1,2.735,2.735" transform="translate(-46.785 -57.875)" fill="#fff2e3"/>
            <path id="Trazado_1038377" data-name="Trazado 1038377" d="M130.153,214.177s-6.932-5.091-13.325-15.664-17.705-48.451-21.147-54.226-13.763-18.576-15-23.848c-1.107-4.714.984-6.1,1.352-7.008,2.582-3.812,4.3-5.656,6.27-5.656-3.2-10.82-2.7-15.834.738-11.605s8.607,18.95,9.345,19.212c4.18-.475,7.15,3.243,7.387,10.359-.01,6.378-.256,3.673,1.219,7.853s21.811,40.023,27.135,48.167,10.527,26.3,7.065,34.8c-5.43,1.372-7.7.548-11.039-2.389" transform="translate(-19.233 -22.659)" fill="#e48464"/>
            <path id="Trazado_1038378" data-name="Trazado 1038378" d="M101.184,121.9s-5.164,2.6-6.762,4.442-3.443,3.688-1.6,5.287,4.672.737,6.393,0a13.168,13.168,0,0,0-.861,8.606" transform="translate(-22.032 -29.174)" fill="none" stroke="#a0533f" stroke-miterlimit="10" stroke-width="0.75"/>
            <line id="Línea_845" data-name="Línea 845" x2="4.475" y2="11.004" transform="translate(69.07 85.116)" fill="none" stroke="#a0533f" stroke-miterlimit="10" stroke-width="0.75"/>
            <line id="Línea_846" data-name="Línea 846" x2="5.196" y2="12.371" transform="translate(64.825 87.991)" fill="none" stroke="#a0533f" stroke-miterlimit="10" stroke-width="0.75"/>
            <line id="Línea_847" data-name="Línea 847" x2="5.21" y2="12.491" transform="translate(62.214 91.682)" fill="none" stroke="#a0533f" stroke-miterlimit="10" stroke-width="0.75"/>
            <line id="Línea_848" data-name="Línea 848" y1="3.719" x2="4.802" transform="translate(65.498 101.89)" fill="none" stroke="#a0533f" stroke-miterlimit="10" stroke-width="0.75"/>
            <path id="Trazado_1038379" data-name="Trazado 1038379" d="M185.043,13.382S184.268,2.739,197.1.526s22.484,2.767,27.709,11.066,1.168,25.02,9.283,38.053-.923,25.205-.923,25.205-16.781-9.663-30.8-12.172c-16.045-37.808-17.329-49.3-17.329-49.3" transform="translate(-44.285 0)" fill="#7c2e25"/>
            <g id="Grupo_1177564" data-name="Grupo 1177564" transform="translate(172.966 3.939)" opacity="0.17" style="mix-blend-mode: overlay;isolation: isolate">
              <g id="Grupo_1177563" data-name="Grupo 1177563">
                <g id="Grupo_1177562" data-name="Grupo 1177562" clip-path="url(#clip-path-6)">
                  <path id="Trazado_1038380" data-name="Trazado 1038380" d="M234.948,12.83a24.488,24.488,0,0,0-7.559-7.652s8.112,11.286,7.559,22.748,2.511,18.256,4.426,24.741c2.025,6.857-1.516,15.1-3.542,19.534,4.493,2.172,7.477,3.889,7.477,3.889s9.037-12.172.923-25.2-4.057-29.755-9.283-38.054" transform="translate(-227.388 -5.178)" fill="#fff"/>
                </g>
              </g>
            </g>
            <path id="Trazado_1038381" data-name="Trazado 1038381" d="M210.878,13.382S211.654,2.739,198.82.526s-22.484,2.767-27.709,11.066-1.168,25.02-9.283,38.053.923,25.205.923,25.205,16.782-9.663,30.8-12.172c16.045-37.808,17.329-49.3,17.329-49.3" transform="translate(-37.922 0)" fill="#872a21"/>
            <path id="Trazado_1038382" data-name="Trazado 1038382" d="M211.122,97.746c-6.363-5.779-2.981-16.722-2.981-16.722H193.878s3.382,10.943-2.981,16.722a35.531,35.531,0,0,1-6.42,4.438,19.235,19.235,0,0,0,33.531.259,36.56,36.56,0,0,1-6.886-4.7" transform="translate(-44.152 -19.392)" fill="#e48464"/>
            <path id="Trazado_1038383" data-name="Trazado 1038383" d="M210.314,85.266a23.666,23.666,0,0,1,.784-4.242H196.836s1.947,6.31.1,11.879c7.434-.838,12.25-6.24,13.38-7.636" transform="translate(-47.11 -19.392)" fill="#380403"/>
            <path id="Trazado_1038384" data-name="Trazado 1038384" d="M241.048,54.32c-1.613,3.962-5.495,6.126-8.672,4.833s-4.443-5.553-2.83-9.515,5.5-6.126,8.672-4.833,4.443,5.553,2.83,9.515" transform="translate(-54.771 -10.634)" fill="#e48464"/>
            <path id="Trazado_1038385" data-name="Trazado 1038385" d="M197.26,74.847l-.968-9.55-18.72-10.943-3.9,3.688s-4.056,16.138,2.75,24.594c5.924-2.709,13.544-5.707,20.488-6.95.122-.286.234-.556.354-.839" transform="translate(-41.278 -13.009)" fill="#420e0c"/>
            <g id="Grupo_1177567" data-name="Grupo 1177567" transform="translate(177.711 37.152)" opacity="0.32">
              <g id="Grupo_1177566" data-name="Grupo 1177566">
                <g id="Grupo_1177565" data-name="Grupo 1177565" clip-path="url(#clip-path-7)">
                  <path id="Trazado_1038386" data-name="Trazado 1038386" d="M242.192,55.376A8.592,8.592,0,0,0,242.358,49c-3.04-.786-6.524,1.344-8.03,5.044a8.59,8.59,0,0,0-.166,6.372c3.04.786,6.524-1.343,8.03-5.043" transform="translate(-233.627 -48.841)" fill="#590a06"/>
                </g>
              </g>
            </g>
            <path id="Trazado_1038387" data-name="Trazado 1038387" d="M167.316,54.32c1.613,3.962,5.5,6.126,8.672,4.833s4.443-5.553,2.83-9.515-5.5-6.126-8.672-4.833-4.443,5.553-2.83,9.515" transform="translate(-39.877 -10.634)" fill="#e48464"/>
            <path id="Trazado_1038388" data-name="Trazado 1038388" d="M216.231,17.592c-1.07,3.286-3.6,9.3-8.108,10.628-4.672.615,1.721-3.443,1.23-7.992-14.65,8.291-23.522,10.654-28.377,10.7-.685,11.559.8,23.479,3.449,28.5,3.2,6.068,6.363,11.186,15.707,11.945,9.344-.758,12.511-5.877,15.707-11.945s4.7-22.186,2.736-35.585a15.41,15.41,0,0,0-2.344-6.254" transform="translate(-43.274 -4.21)" fill="#e48464"/>
            <g id="Grupo_1177570" data-name="Grupo 1177570" transform="translate(126.739 37.152)" opacity="0.32">
              <g id="Grupo_1177569" data-name="Grupo 1177569">
                <g id="Grupo_1177568" data-name="Grupo 1177568" clip-path="url(#clip-path-8)">
                  <path id="Trazado_1038389" data-name="Trazado 1038389" d="M167.316,55.376A8.593,8.593,0,0,1,167.15,49c3.04-.786,6.524,1.344,8.03,5.044a8.591,8.591,0,0,1,.166,6.372c-3.04.786-6.524-1.343-8.03-5.043" transform="translate(-166.616 -48.841)" fill="#590a06"/>
                </g>
              </g>
            </g>
            <path id="Trazado_1038390" data-name="Trazado 1038390" d="M211.65,51.333c1.246-2.4,4.811-7.254,12.1-3.556a1.332,1.332,0,0,1,.6,1.731c-1.845,4.112-7.629,4.562-12,3.415a1.116,1.116,0,0,1-.7-1.589" transform="translate(-50.626 -11.113)" fill="#fff2e3"/>
            <path id="Trazado_1038391" data-name="Trazado 1038391" d="M215.6,47.656a3.9,3.9,0,0,0,1.637,5.806,11.993,11.993,0,0,0,4.124-.642,3.869,3.869,0,0,0-.609-6.3,7.171,7.171,0,0,0-5.152,1.139" transform="translate(-51.433 -11.114)" fill="#651d13"/>
            <path id="Trazado_1038392" data-name="Trazado 1038392" d="M211.688,51.093a3.947,3.947,0,0,1,.173-.64,7.131,7.131,0,0,1,.762-1.58,6.367,6.367,0,0,1,.712-.954,7.735,7.735,0,0,1,.963-.946l.592-.417a3.017,3.017,0,0,1,.645-.377c.228-.106.455-.228.693-.323l.744-.218.375-.1.384-.043.764-.068c.5,0,1,.085,1.466.129.457.114.89.255,1.295.383a9.245,9.245,0,0,1,1.067.523l.457.248c.138.091.259.195.377.282.236.176.431.344.591.478.319.272.489.437.489.437s-.241-.052-.64-.162c-.2-.056-.439-.12-.7-.209a6.178,6.178,0,0,0-.9-.231c-.333-.062-.682-.164-1.05-.23-.377-.038-.767-.073-1.162-.14l-1.214.022c-.2.03-.4.065-.609.087l-.307.037-.3.087-.6.158-.569.234a9,9,0,0,0-1.088.542c-.317.241-.673.418-.958.667-.3.227-.575.459-.828.682-.5.453-.909.86-1.186,1.161s-.44.481-.44.481" transform="translate(-50.665 -10.873)" fill="#590a06"/>
            <path id="Trazado_1038393" data-name="Trazado 1038393" d="M196.7,51.333c-1.247-2.4-4.812-7.254-12.1-3.556a1.332,1.332,0,0,0-.6,1.731c1.845,4.112,7.629,4.562,12,3.415a1.117,1.117,0,0,0,.7-1.589" transform="translate(-44.009 -11.113)" fill="#fff2e3"/>
            <path id="Trazado_1038394" data-name="Trazado 1038394" d="M194.362,47.656a3.9,3.9,0,0,1-1.637,5.806,11.993,11.993,0,0,1-4.124-.642,3.869,3.869,0,0,1,.609-6.3,7.171,7.171,0,0,1,5.152,1.139" transform="translate(-44.816 -11.114)" fill="#651d13"/>
            <path id="Trazado_1038395" data-name="Trazado 1038395" d="M196.786,51.093s-.156-.185-.44-.481-.688-.708-1.186-1.161c-.253-.223-.529-.456-.828-.682-.284-.249-.64-.426-.958-.667a9,9,0,0,0-1.088-.542l-.569-.234-.6-.158-.3-.087-.307-.037c-.2-.022-.406-.057-.609-.087l-1.215-.022c-.394.067-.784.1-1.161.14-.369.067-.717.168-1.05.23a6.176,6.176,0,0,0-.9.231c-.265.089-.505.153-.7.209-.4.11-.64.162-.64.162s.17-.164.488-.437c.161-.134.356-.3.592-.478.118-.087.239-.192.377-.282l.457-.248a9.245,9.245,0,0,1,1.067-.523c.4-.128.837-.269,1.295-.383.47-.043.962-.131,1.466-.129l.764.068.384.043.375.1.744.218c.238.094.465.216.693.323a3.018,3.018,0,0,1,.645.377l.592.417a7.735,7.735,0,0,1,.963.946,6.37,6.37,0,0,1,.712.954,7.135,7.135,0,0,1,.762,1.58,3.949,3.949,0,0,1,.173.64" transform="translate(-44.095 -10.873)" fill="#590a06"/>
            <path id="Trazado_1038396" data-name="Trazado 1038396" d="M215.207,38.556c2.5-.438,6.768-.661,9.884,1.966-3.22-5.362-6.437-5.486-10.226-5.43a1.729,1.729,0,0,0-1.7,1.727v.04a1.732,1.732,0,0,0,2.045,1.7" transform="translate(-51.018 -8.397)" fill="#651d13"/>
            <path id="Trazado_1038397" data-name="Trazado 1038397" d="M193.462,38.556c-2.5-.438-6.768-.661-9.884,1.966,3.22-5.362,6.437-5.486,10.226-5.43a1.729,1.729,0,0,1,1.7,1.727v.04a1.732,1.732,0,0,1-2.045,1.7" transform="translate(-43.937 -8.397)" fill="#651d13"/>
            <g id="Grupo_1177573" data-name="Grupo 1177573" transform="translate(155.013 45.034)" opacity="0.62">
              <g id="Grupo_1177572" data-name="Grupo 1177572">
                <g id="Grupo_1177571" data-name="Grupo 1177571" clip-path="url(#clip-path-9)">
                  <path id="Trazado_1038398" data-name="Trazado 1038398" d="M207.475,59.2v7.869l-3.688-.615,5.164,1.967Z" transform="translate(-203.787 -59.203)" fill="#651d13"/>
                </g>
              </g>
            </g>
            <path id="Trazado_1038399" data-name="Trazado 1038399" d="M199.261,73.434s9.33,1.352,11.189-.491c-2.69,3.32-7.131,3.934-11.189.491" transform="translate(-47.69 -17.458)" fill="#fff2e3"/>
            <g id="Grupo_1177576" data-name="Grupo 1177576" transform="translate(162.759 45.189)" opacity="0.32">
              <g id="Grupo_1177575" data-name="Grupo 1177575">
                <g id="Grupo_1177574" data-name="Grupo 1177574" clip-path="url(#clip-path-10)">
                  <path id="Trazado_1038400" data-name="Trazado 1038400" d="M224.177,62.065c0-1.468-2.285-2.659-5.1-2.659s-5.1,1.19-5.1,2.659,2.284,2.659,5.1,2.659,5.1-1.19,5.1-2.659" transform="translate(-213.97 -59.407)" fill="#af0808"/>
                </g>
              </g>
            </g>
            <g id="Grupo_1177579" data-name="Grupo 1177579" transform="translate(140.749 45.189)" opacity="0.32">
              <g id="Grupo_1177578" data-name="Grupo 1177578">
                <g id="Grupo_1177577" data-name="Grupo 1177577" clip-path="url(#clip-path-10)">
                  <path id="Trazado_1038401" data-name="Trazado 1038401" d="M185.035,62.065c0-1.468,2.284-2.659,5.1-2.659s5.1,1.19,5.1,2.659-2.284,2.659-5.1,2.659-5.1-1.19-5.1-2.659" transform="translate(-185.035 -59.407)" fill="#af0808"/>
                </g>
              </g>
            </g>
            <g id="Grupo_1177582" data-name="Grupo 1177582" transform="translate(141.893 13.382)" opacity="0.17" style="mix-blend-mode: overlay;isolation: isolate">
              <g id="Grupo_1177581" data-name="Grupo 1177581">
                <g id="Grupo_1177580" data-name="Grupo 1177580" clip-path="url(#clip-path-12)">
                  <path id="Trazado_1038402" data-name="Trazado 1038402" d="M217.6,17.592c-1.07,3.286-3.6,9.3-8.108,10.628-4.672.615,1.721-3.443,1.23-7.992C199.74,26.444,192,29.328,186.774,30.4c-.465,11.414-2.489,41.475,22.626,38.655,3.694-2.209,5.75-5.716,7.809-9.625,3.2-6.067,4.7-22.186,2.736-35.585a15.409,15.409,0,0,0-2.344-6.254" transform="translate(-186.538 -17.592)" fill="#fff"/>
                </g>
              </g>
            </g>
            <path id="Trazado_1038403" data-name="Trazado 1038403" d="M192.027,155.523A87.746,87.746,0,0,0,160.8,141.978v6.713Z" transform="translate(-38.486 -33.981)" fill="#fff2e3"/>
            <path id="Trazado_1038404" data-name="Trazado 1038404" d="M190.558,158.16v-1.78s-23.822-9.906-35.892-10.817l2.96,30.631,32.931-9.11Z" transform="translate(-37.017 -34.839)" fill="#d1beae"/>
            <path id="Trazado_1038405" data-name="Trazado 1038405" d="M209.1,159.785a4.58,4.58,0,0,1-7.248,0v1.78s.507,6.191,3.206,6.191,4.042-6.191,4.042-6.191Z" transform="translate(-48.31 -38.242)" fill="#ececec"/>
            <path id="Trazado_1038406" data-name="Trazado 1038406" d="M211.38,155.523A87.738,87.738,0,0,1,242.6,141.978v6.713Z" transform="translate(-50.591 -33.981)" fill="#fff2e3"/>
            <path id="Trazado_1038407" data-name="Trazado 1038407" d="M211.38,158.16v-1.78s23.822-9.906,35.892-10.817l-2.961,30.631-32.931-9.11Z" transform="translate(-50.591 -34.839)" fill="#d1beae"/>
            <path id="Trazado_1038408" data-name="Trazado 1038408" d="M205.511,165.351h-.072a3.588,3.588,0,0,1-3.57-3.227h-.018v47.028a3.588,3.588,0,0,0,3.588,3.588h.072a3.588,3.588,0,0,0,3.588-3.588V162.124h-.019a3.587,3.587,0,0,1-3.569,3.227" transform="translate(-48.31 -38.802)" fill="#e5ac3c"/>
            <path id="Trazado_1038409" data-name="Trazado 1038409" d="M211.38,158.918l42.249-10.191-8.153,46.88-34.1,10.34Z" transform="translate(-50.591 -35.596)" fill="#ffcb57"/>
            <path id="Trazado_1038410" data-name="Trazado 1038410" d="M188.558,158.918l-42.25-10.191,8.153,46.88,34.1,10.34Z" transform="translate(-35.017 -35.596)" fill="#bc8d2f"/>
            <path id="Trazado_1038411" data-name="Trazado 1038411" d="M253.629,148.353l-1.1-1.189-41.152,9.6v1.78Z" transform="translate(-50.591 -35.222)" fill="#f9d180"/>
            <path id="Trazado_1038412" data-name="Trazado 1038412" d="M146.309,148.353l1.1-1.189,41.152,9.6v1.78Z" transform="translate(-35.017 -35.222)" fill="#f9d180"/>
            <path id="Trazado_1038413" data-name="Trazado 1038413" d="M229.733,186.519s3.574-12.787,3.178-18.574c-2.731,3.557-7.229,2.528-7.229,2.528l-7.653-10.328-.338,10.882-2.536-5.041s-2.5,11.189-2.014,13.7a39.7,39.7,0,0,0,5.657,14.335,36.737,36.737,0,0,1,4.866,11.058l4.767-1.445Z" transform="translate(-50.997 -38.329)" fill="#2c4556"/>
            <path id="Trazado_1038414" data-name="Trazado 1038414" d="M260.551,236.754s-1.729,11.312-10.147,11.189-13.582-9.222-16.9-20.287-9.59-31.6-13.279-35.41-7.992-10.82-8.729-15.615,1.229-3.812,1.229-3.812-2.09-6.024.123-6.517c-.861-6.517-.369-7.877.984-7.135s7.008,12.638,7.008,12.638-4.18-12.389-3.074-14.11,2.214-.623,3.566,1.471,5.779,11.93,5.779,11.93,2.582.86,3.565-1.414,3.443-4.119,4.672-4.119,2.417,1.845.594,4.119-2.315,10.512-2.069,12.357,1.9,10.69,6.485,16.226,18.966,25.331,20.2,38.487" transform="translate(-50.579 -37.539)" fill="#e48464"/>
            <path id="Trazado_1038415" data-name="Trazado 1038415" d="M213.324,169.278s2.489,7.223,3.78,9.806" transform="translate(-51.056 -40.514)" fill="none" stroke="#a0533f" stroke-miterlimit="10" stroke-width="0.75"/>
            <path id="Trazado_1038416" data-name="Trazado 1038416" d="M213.162,177.845a39.106,39.106,0,0,0,2.013,7.162" transform="translate(-51.018 -42.565)" fill="none" stroke="#a0533f" stroke-miterlimit="10" stroke-width="0.75"/>
            <path id="Trazado_1038417" data-name="Trazado 1038417" d="M250.15,212.186c.237-.555,10.063,11.367,14.592,22.532" transform="translate(-59.87 -50.779)" fill="none" stroke="#a0533f" stroke-miterlimit="10" stroke-width="1"/>
            <path id="Trazado_1038418" data-name="Trazado 1038418" d="M257.044,260.582a11.828,11.828,0,0,0-9.371,4.61c2.937,4.556,6.66,7.508,11.43,7.578,4.384.065,6.952-2.973,8.408-5.9a11.854,11.854,0,0,0-10.467-6.288" transform="translate(-59.277 -62.367)" fill="#c6684f"/>
            <path id="Trazado_1038419" data-name="Trazado 1038419" d="M137.461,186.338s11.328,16.112,14.156,25.008" transform="translate(-32.899 -44.598)" fill="none" stroke="#a0533f" stroke-miterlimit="10" stroke-width="1"/>
            <path id="Trazado_1038420" data-name="Trazado 1038420" d="M140.42,234.985a11.893,11.893,0,0,0-7.334,2.528,52.352,52.352,0,0,0,9.686,10.247c2.893,2.547,4.991,3.5,9.038,2.816a11.954,11.954,0,0,0-11.39-15.591" transform="translate(-31.852 -56.241)" fill="#c6684f"/>
            <path id="Trazado_1038421" data-name="Trazado 1038421" d="M233.315,261.181s13.671,44.56,1.26,77.757" transform="translate(-55.841 -62.51)" fill="none" stroke="#fff2e3" stroke-miterlimit="10" stroke-width="0.97"/>
            <path id="Trazado_1038422" data-name="Trazado 1038422" d="M174.1,11.591c-2.04,3.24-2.665,7.768-3.151,12.855a31.251,31.251,0,0,1,9.6-4.74C190.329,16.463,195.145,5.6,197.023.023,186.572-.349,178.658,4.36,174.1,11.591" transform="translate(-40.915 0)" fill="#541610"/>
            <path id="Trazado_1038423" data-name="Trazado 1038423" d="M0,273.079l2.323-1.505H67.242l28.033,54.875h-59.2Z" transform="translate(0 -64.998)" fill="#b2b2b2"/>
            <rect id="Rectángulo_416024" data-name="Rectángulo 416024" width="99.862" height="6.013" transform="translate(26.975 261.451)" fill="#cecece"/>
            <path id="Trazado_1038424" data-name="Trazado 1038424" d="M65.9,273.553H0l26.975,53.37h65.9Z" transform="translate(0 -65.471)" fill="#cecece"/>
            <path id="Trazado_1038425" data-name="Trazado 1038425" d="M61.716,311.673c-2.58,3.539-8.175,3.857-12.5.707s-5.734-8.572-3.154-12.112,8.173-3.856,12.495-.707,5.735,8.571,3.156,12.111" transform="translate(-10.717 -71.177)" fill="#fff"/>
            <line id="Línea_849" data-name="Línea 849" x2="68.299" transform="translate(26.975 261.451)" fill="none" stroke="#b2b2b2" stroke-miterlimit="10" stroke-width="0.97"/>
            <rect id="Rectángulo_416025" data-name="Rectángulo 416025" width="46.858" height="6.013" transform="translate(95.275 261.451)" fill="#b2b2b2"/>
            <rect id="Rectángulo_416026" data-name="Rectángulo 416026" width="13.556" height="2.582" transform="translate(70.377 263.288)" fill="#b2b2b2"/>
            <rect id="Rectángulo_416027" data-name="Rectángulo 416027" width="7.101" height="2.582" transform="translate(98.501 263.288)" fill="#7a7774"/>
            <rect id="Rectángulo_416028" data-name="Rectángulo 416028" width="7.101" height="2.582" transform="translate(109.383 263.288)" fill="#7a7774"/>
            <path id="Trazado_1038426" data-name="Trazado 1038426" d="M273.677,345.216h34.889a9.952,9.952,0,1,0,0-19.9H273.677Z" transform="translate(-65.501 -77.859)" fill="#af1018"/>
            <path id="Trazado_1038427" data-name="Trazado 1038427" d="M273.677,345.216h34.889a9.952,9.952,0,1,0,0-19.9H273.677Z" transform="translate(-65.501 -77.859)" fill="#db5e1f"/>
            <path id="Trazado_1038428" data-name="Trazado 1038428" d="M260.719,344.358H217.026v-15.8h43.693a7.5,7.5,0,0,1,7.5,7.5v.8a7.5,7.5,0,0,1-7.5,7.5" transform="translate(-51.942 -78.636)" fill="#fff"/>
            <path id="Trazado_1038429" data-name="Trazado 1038429" d="M260.719,328.556a7.5,7.5,0,0,1,7.5,7.483,7.486,7.486,0,0,0-7.32-5.923h-43.87v-1.559Z" transform="translate(-51.942 -78.636)" fill="#d6c7b4"/>
            <g id="Grupo_1177585" data-name="Grupo 1177585" transform="translate(225.568 247.453)" opacity="0.35">
              <g id="Grupo_1177584" data-name="Grupo 1177584">
                <g id="Grupo_1177583" data-name="Grupo 1177583" clip-path="url(#clip-path-13)">
                  <path id="Trazado_1038430" data-name="Trazado 1038430" d="M306.493,335.264h0a9.952,9.952,0,0,0-9.952-9.952h6.58a9.952,9.952,0,0,1,0,19.9h-6.58a9.952,9.952,0,0,0,9.952-9.952" transform="translate(-296.541 -325.312)" fill="#590a06"/>
                </g>
              </g>
            </g>
            <path id="Trazado_1038431" data-name="Trazado 1038431" d="M222.213,341.258l1.833-.072c1.166-.03,2.833-.1,4.832-.136s4.332-.1,6.832-.113l7.833-.049,7.832.049c2.5.013,4.833.083,6.832.113s3.666.106,4.832.136l1.832.072-1.832.072c-1.167.03-2.833.1-4.832.136s-4.333.1-6.832.113l-7.832.049-7.833-.049c-2.5-.014-4.832-.083-6.832-.113s-3.666-.106-4.832-.136l-1.833-.071" transform="translate(-53.184 -81.587)" fill="#d3cabe"/>
            <path id="Trazado_1038432" data-name="Trazado 1038432" d="M217.364,338.827l1.833-.072c1.166-.03,2.833-.1,4.832-.136s4.332-.1,6.832-.113l7.833-.049,7.832.048c2.5.013,4.832.083,6.832.113s3.666.107,4.833.136l1.833.072-1.833.072c-1.166.03-2.833.1-4.833.136s-4.332.1-6.832.113l-7.832.049-7.833-.049c-2.5-.014-4.832-.083-6.832-.113s-3.666-.106-4.832-.136l-1.833-.071" transform="translate(-52.023 -81.005)" fill="#d3cabe"/>
            <path id="Trazado_1038433" data-name="Trazado 1038433" d="M219.721,334.227l1.833-.072c1.166-.03,2.833-.1,4.832-.136s4.332-.1,6.832-.113l7.832-.049,7.832.049c2.5.012,4.832.083,6.832.113s3.666.106,4.832.136l1.832.072-1.832.072c-1.167.03-2.833.1-4.832.136s-4.333.1-6.832.113l-7.832.048-7.832-.049c-2.5-.014-4.832-.083-6.832-.113s-3.666-.106-4.832-.136l-1.833-.072" transform="translate(-52.587 -79.904)" fill="#d3cabe"/>
            <path id="Trazado_1038434" data-name="Trazado 1038434" d="M258.823,342.748a7.484,7.484,0,1,0,0-14.968H214.878v-2.468H259.03a9.952,9.952,0,0,1,0,19.9H214.878v-2.468Z" transform="translate(-51.428 -77.859)" fill="#f27740"/>
            <g id="Grupo_1177588" data-name="Grupo 1177588" transform="translate(223.384 247.453)" opacity="0.2" style="mix-blend-mode: multiply;isolation: isolate">
              <g id="Grupo_1177587" data-name="Grupo 1177587">
                <g id="Grupo_1177586" data-name="Grupo 1177586" clip-path="url(#clip-path-14)">
                  <path id="Trazado_1038435" data-name="Trazado 1038435" d="M293.67,325.312h19.681a9.952,9.952,0,1,1,0,19.9c0-18.491-19.681-19.9-19.681-19.9" transform="translate(-293.67 -325.312)" fill="#560410"/>
                </g>
              </g>
            </g>
            <g id="Grupo_1177591" data-name="Grupo 1177591" transform="translate(175.855 247.453)" opacity="0.16" style="mix-blend-mode: multiply;isolation: isolate">
              <g id="Grupo_1177590" data-name="Grupo 1177590">
                <g id="Grupo_1177589" data-name="Grupo 1177589" clip-path="url(#clip-path-15)">
                  <path id="Trazado_1038436" data-name="Trazado 1038436" d="M234.853,325.312h28.079c.193,0,.385.007.575.017v-.017H298.4a9.952,9.952,0,1,1,0,19.9H263.507V345.2c-.19.011-.382.017-.575.017l-31.746-19.571Z" transform="translate(-231.186 -325.312)" fill="#1b2942"/>
                </g>
              </g>
            </g>
            <path id="Trazado_1038437" data-name="Trazado 1038437" d="M269.931,302.831H294.57a7.028,7.028,0,1,0,0-14.056H269.931Z" transform="translate(-64.604 -69.114)" fill="#af1018"/>
            <path id="Trazado_1038438" data-name="Trazado 1038438" d="M269.931,302.831H294.57a7.028,7.028,0,1,0,0-14.056H269.931Z" transform="translate(-64.604 -69.114)" fill="#6fb590"/>
            <path id="Trazado_1038439" data-name="Trazado 1038439" d="M260.779,302.226H229.923v-11.16h30.856a5.3,5.3,0,0,1,5.3,5.3v.568a5.3,5.3,0,0,1-5.3,5.3" transform="translate(-55.029 -69.663)" fill="#fff"/>
            <path id="Trazado_1038440" data-name="Trazado 1038440" d="M260.779,291.065a5.3,5.3,0,0,1,5.3,5.284,5.286,5.286,0,0,0-5.169-4.183H229.923v-1.1Z" transform="translate(-55.029 -69.663)" fill="#d6c7b4"/>
            <g id="Grupo_1177594" data-name="Grupo 1177594" transform="translate(210.912 225.516)" opacity="0.49" style="mix-blend-mode: multiply;isolation: isolate">
              <g id="Grupo_1177593" data-name="Grupo 1177593">
                <g id="Grupo_1177592" data-name="Grupo 1177592" clip-path="url(#clip-path-16)">
                  <path id="Trazado_1038441" data-name="Trazado 1038441" d="M303.356,297.645a7.089,7.089,0,0,1-.129,1.33H277.274v-2.5H303.25a7,7,0,0,1,.106,1.172" transform="translate(-277.274 -296.473)" fill="#1b2942"/>
                </g>
              </g>
            </g>
            <path id="Trazado_1038442" data-name="Trazado 1038442" d="M259.441,301.089a5.285,5.285,0,0,0,0-10.571H228.406v-1.743h31.181a7.028,7.028,0,0,1,0,14.056H228.406v-1.743Z" transform="translate(-54.666 -69.114)" fill="#2d4f3b"/>
            <g id="Grupo_1177597" data-name="Grupo 1177597" transform="translate(216.067 219.66)" opacity="0.49" style="mix-blend-mode: multiply;isolation: isolate">
              <g id="Grupo_1177596" data-name="Grupo 1177596">
                <g id="Grupo_1177595" data-name="Grupo 1177595" clip-path="url(#clip-path-17)">
                  <path id="Trazado_1038443" data-name="Trazado 1038443" d="M284.051,288.774h13.9a7.028,7.028,0,1,1,0,14.056c0-13.058-13.9-14.056-13.9-14.056" transform="translate(-284.051 -288.774)" fill="#1b2942"/>
                </g>
              </g>
            </g>
            <path id="Trazado_1038444" data-name="Trazado 1038444" d="M234.615,301.605l1.219-.083c.775-.035,1.883-.119,3.213-.157s2.88-.11,4.542-.137,3.434-.043,5.207-.052c1.772.008,3.545.014,5.207.051s3.213.1,4.542.136,2.437.124,3.213.158l1.219.084-1.219.084c-.776.035-1.883.12-3.213.158s-2.88.111-4.542.136-3.434.043-5.207.051c-1.772-.009-3.545-.015-5.207-.052s-3.213-.1-4.542-.136-2.438-.123-3.213-.158l-1.219-.083" transform="translate(-56.152 -72.082)" fill="#d3cabe"/>
            <path id="Trazado_1038445" data-name="Trazado 1038445" d="M231.842,298.333l1.219-.036,3.213-.084,4.542-.066,5.207-.028,5.207.028,4.542.065c2.659.058,4.432.121,4.432.121s-1.772.063-4.432.121l-4.542.065-5.207.028-5.207-.029-4.542-.065-3.213-.084-1.219-.036" transform="translate(-55.488 -71.351)" fill="#d3cabe"/>
            <path id="Trazado_1038446" data-name="Trazado 1038446" d="M252.171,321.1H227.906a6.922,6.922,0,0,1,0-13.843h24.265Z" transform="translate(-52.89 -73.537)" fill="#af1018"/>
            <path id="Trazado_1038447" data-name="Trazado 1038447" d="M252.171,321.1H227.906a6.922,6.922,0,0,1,0-13.843h24.265Z" transform="translate(-52.89 -73.537)" fill="#fdb03e"/>
            <path id="Trazado_1038448" data-name="Trazado 1038448" d="M259.8,320.5h30.388V309.51H259.8a5.215,5.215,0,0,0-5.215,5.215v.56A5.215,5.215,0,0,0,259.8,320.5" transform="translate(-60.93 -74.077)" fill="#fff"/>
            <path id="Trazado_1038449" data-name="Trazado 1038449" d="M259.8,309.51a5.215,5.215,0,0,0-5.215,5.2,5.207,5.207,0,0,1,5.091-4.119h30.512V309.51Z" transform="translate(-60.93 -74.077)" fill="#d6c7b4"/>
            <path id="Trazado_1038450" data-name="Trazado 1038450" d="M231.551,314.175h0a6.921,6.921,0,0,1,6.921-6.921H233.9a6.921,6.921,0,1,0,0,13.843h4.576a6.922,6.922,0,0,1-6.921-6.921" transform="translate(-54.323 -73.537)" fill="#bc8d2f"/>
            <path id="Trazado_1038451" data-name="Trazado 1038451" d="M260.476,319.381a5.205,5.205,0,0,1,0-10.41h30.563v-1.716H260.332a6.921,6.921,0,1,0,0,13.843h30.707v-1.716Z" transform="translate(-60.651 -73.537)" fill="#bc8d2f"/>
            <g id="Grupo_1177600" data-name="Grupo 1177600" transform="translate(168.095 233.717)" opacity="0.2" style="mix-blend-mode: overlay;isolation: isolate">
              <g id="Grupo_1177599" data-name="Grupo 1177599">
                <g id="Grupo_1177598" data-name="Grupo 1177598" clip-path="url(#clip-path-18)">
                  <path id="Trazado_1038452" data-name="Trazado 1038452" d="M241.594,307.254H227.906a6.922,6.922,0,0,0,0,13.843c0-12.861,13.688-13.843,13.688-13.843" transform="translate(-220.985 -307.254)" fill="#fefefe"/>
                </g>
              </g>
            </g>
            <path id="Trazado_1038453" data-name="Trazado 1038453" d="M260.243,319.981l1.268-.065c.808-.027,1.96-.093,3.345-.123s3-.09,4.728-.1l5.42-.044,5.419.044c1.73.011,3.344.075,4.728.1s2.536.1,3.344.123l1.268.065-1.268.065c-.808.027-1.96.094-3.344.123s-3,.091-4.728.1l-5.419.044-5.42-.044c-1.73-.013-3.344-.075-4.728-.1s-2.537-.1-3.345-.123l-1.268-.065" transform="translate(-62.286 -76.503)" fill="#d3cabe"/>
            <path id="Trazado_1038454" data-name="Trazado 1038454" d="M257.87,318.088l1.269-.065c.807-.027,1.96-.093,3.344-.123s3-.09,4.728-.1l5.42-.044,5.419.044c1.73.011,3.344.075,4.728.1s2.537.1,3.344.123l1.268.065-1.268.065c-.807.027-1.96.094-3.344.123s-3,.091-4.728.1l-5.419.044-5.42-.044c-1.73-.013-3.344-.075-4.728-.1s-2.537-.1-3.344-.123l-1.269-.065" transform="translate(-61.718 -76.05)" fill="#d3cabe"/>
            <path id="Trazado_1038455" data-name="Trazado 1038455" d="M261.364,313.565l1.269-.065c.807-.027,1.96-.093,3.344-.123s3-.09,4.728-.1l5.42-.044,5.419.044c1.73.011,3.344.075,4.728.1s2.538.1,3.345.123l1.268.065-1.268.065c-.807.027-1.96.094-3.345.123s-3,.091-4.728.1l-5.419.044-5.42-.044c-1.73-.013-3.344-.075-4.728-.1s-2.537-.1-3.344-.123l-1.269-.065" transform="translate(-62.554 -74.967)" fill="#d3cabe"/>
            <g id="Grupo_1177603" data-name="Grupo 1177603" transform="translate(202.927 233.716)" opacity="0.16" style="mix-blend-mode: multiply;isolation: isolate">
              <g id="Grupo_1177602" data-name="Grupo 1177602">
                <g id="Grupo_1177601" data-name="Grupo 1177601" clip-path="url(#clip-path-19)">
                  <path id="Trazado_1038456" data-name="Trazado 1038456" d="M294.238,307.254v1.716H293.1v10.41h1.136V321.1h-4.607l-22.856-13.843Z" transform="translate(-266.776 -307.254)" fill="#1b2942"/>
                </g>
              </g>
            </g>
            <rect id="Rectángulo_416036" data-name="Rectángulo 416036" width="4.108" height="6.201" transform="translate(180.165 225.066)" fill="#f27740"/>
            <path id="Trazado_1038457" data-name="Trazado 1038457" d="M241.951,295.828s-.459.053-1.146.094c-.344.014-.745.044-1.174.051l-1.347.022-1.347-.022c-.43-.005-.831-.037-1.174-.051-.688-.04-1.146-.094-1.146-.094s.459-.054,1.146-.094c.344-.014.745-.046,1.174-.051l1.347-.022,1.347.022c.43.007.831.037,1.174.051.688.041,1.146.094,1.146.094" transform="translate(-56.152 -70.763)" fill="#d3cabe"/>
            <path id="Trazado_1038458" data-name="Trazado 1038458" d="M376.216,196.222s-27.8,33.832-9.986,73.875c30.913-26.759,10.454-60.666,9.986-73.875" transform="translate(-86.226 -46.963)" fill="#599172"/>
            <path id="Trazado_1038459" data-name="Trazado 1038459" d="M377.923,196.222s-13.311,47.7-9.986,73.875" transform="translate(-87.933 -46.963)" fill="none" stroke="#427824" stroke-miterlimit="10" stroke-width="1"/>
            <path id="Trazado_1038460" data-name="Trazado 1038460" d="M371.873,234.108s6.718-5.728,12.644-6.751" transform="translate(-89.003 -54.415)" fill="none" stroke="#427824" stroke-miterlimit="10" stroke-width="1"/>
            <path id="Trazado_1038461" data-name="Trazado 1038461" d="M368.027,263.905a25.332,25.332,0,0,1,16.7-9.419" transform="translate(-88.082 -60.908)" fill="none" stroke="#427824" stroke-miterlimit="10" stroke-width="1"/>
            <path id="Trazado_1038462" data-name="Trazado 1038462" d="M368.087,247.175s-1.984-4.684-6.322-6.6" transform="translate(-86.584 -57.579)" fill="none" stroke="#427824" stroke-miterlimit="10" stroke-width="1"/>
            <path id="Trazado_1038463" data-name="Trazado 1038463" d="M373.9,220.247s-1.469-5.006-3.466-6.2" transform="translate(-88.658 -51.23)" fill="none" stroke="#427824" stroke-miterlimit="10" stroke-width="1"/>
            <path id="Trazado_1038464" data-name="Trazado 1038464" d="M338.478,198.863S327.079,241.14,359.8,270.3c17.151-37.114-15.456-59.588-21.321-71.433" transform="translate(-80.55 -47.595)" fill="#6fb590"/>
            <path id="Trazado_1038465" data-name="Trazado 1038465" d="M339.083,198.863S346.6,247.813,360.4,270.3" transform="translate(-81.155 -47.595)" fill="none" stroke="#448260" stroke-miterlimit="10" stroke-width="1"/>
            <path id="Trazado_1038466" data-name="Trazado 1038466" d="M347.03,235.6s3.763-7.986,8.742-11.358" transform="translate(-83.057 -53.67)" fill="none" stroke="#448260" stroke-miterlimit="10" stroke-width="1"/>
            <path id="Trazado_1038467" data-name="Trazado 1038467" d="M356.141,263.814a25.334,25.334,0,0,1,11.339-15.46" transform="translate(-85.238 -59.44)" fill="none" stroke="#448260" stroke-miterlimit="10" stroke-width="1"/>
            <path id="Trazado_1038468" data-name="Trazado 1038468" d="M348.086,250.707s-3.736-3.451-8.477-3.407" transform="translate(-81.281 -59.188)" fill="none" stroke="#448260" stroke-miterlimit="10" stroke-width="1"/>
            <path id="Trazado_1038469" data-name="Trazado 1038469" d="M342.293,223.776s-3.4-3.957-5.71-4.22" transform="translate(-80.557 -52.548)" fill="none" stroke="#448260" stroke-miterlimit="10" stroke-width="1"/>
            <path id="Trazado_1038470" data-name="Trazado 1038470" d="M409.875,216.932s7.559-10.668,12.558-6.491-3.469,9.944-12.558,6.491" transform="translate(-98.098 -50.134)" fill="#417556"/>
            <path id="Trazado_1038471" data-name="Trazado 1038471" d="M398.4,250.536s.318-13.07,6.8-12.4,2.671,10.187-6.8,12.4" transform="translate(-95.352 -56.99)" fill="#417556"/>
            <path id="Trazado_1038472" data-name="Trazado 1038472" d="M396.256,212.4s.318-13.07,6.8-12.4,2.671,10.187-6.8,12.4" transform="translate(-94.839 -47.863)" fill="#417556"/>
            <path id="Trazado_1038473" data-name="Trazado 1038473" d="M379.907,262.867s-11.386-6.426-7.745-11.827,10.247,2.432,7.745,11.827" transform="translate(-88.9 -59.66)" fill="#417556"/>
            <path id="Trazado_1038474" data-name="Trazado 1038474" d="M379.919,278.709s12.63-8.062,7.64-29.256,14.707-30.408,19.043-32.14" transform="translate(-90.929 -52.011)" fill="none" stroke="#133f1a" stroke-linecap="round" stroke-miterlimit="10" stroke-width="2"/>
            <path id="Trazado_1038475" data-name="Trazado 1038475" d="M394.949,226.983s-.767-9.36,3.825-15.565" transform="translate(-94.514 -50.6)" fill="none" stroke="#133f1a" stroke-linecap="round" stroke-miterlimit="10" stroke-width="2"/>
            <path id="Trazado_1038476" data-name="Trazado 1038476" d="M389.964,256.72s7.466-2.052,10.247-9.046" transform="translate(-93.333 -59.278)" fill="none" stroke="#133f1a" stroke-linecap="round" stroke-miterlimit="10" stroke-width="2"/>
            <path id="Trazado_1038477" data-name="Trazado 1038477" d="M388.306,272.862s-6.983-4.333-9.011-14.694" transform="translate(-90.779 -61.789)" fill="none" stroke="#133f1a" stroke-linecap="round" stroke-miterlimit="10" stroke-width="2"/>
            <path id="Trazado_1038478" data-name="Trazado 1038478" d="M362.323,285.637H342.585s3.043,35.7,10.738,50.191h18c7.7-14.488,10.738-50.191,10.738-50.191Z" transform="translate(-81.993 -68.363)" fill="#2c4556"/>
            <g id="Grupo_1177606" data-name="Grupo 1177606" transform="translate(260.592 217.273)" opacity="0.45">
              <g id="Grupo_1177605" data-name="Grupo 1177605">
                <g id="Grupo_1177604" data-name="Grupo 1177604" clip-path="url(#clip-path-20)">
                  <path id="Trazado_1038479" data-name="Trazado 1038479" d="M342.585,285.637s3.043,35.7,10.738,50.191h9.158c-7.7-14.488-10.738-50.191-10.738-50.191Z" transform="translate(-342.585 -285.637)" fill="#1b2e38"/>
                </g>
              </g>
            </g>
            <path id="Trazado_1038480" data-name="Trazado 1038480" d="M342.585,285.637s.25,2.937.789,7.463h37.9c.538-4.526.789-7.463.789-7.463H342.585Z" transform="translate(-81.993 -68.363)" fill="#4b72b7"/>
            <path id="Trazado_1038481" data-name="Trazado 1038481" d="M313.033,356.862a5.243,5.243,0,0,1-5.242,5.242H27.127a5.242,5.242,0,0,1,0-10.485H307.791a5.243,5.243,0,0,1,5.242,5.242" transform="translate(-5.238 -84.156)" fill="#4b72b7"/>
            <g id="Grupo_1177609" data-name="Grupo 1177609" transform="translate(16.647 267.464)" opacity="0.52">
              <g id="Grupo_1177608" data-name="Grupo 1177608">
                <g id="Grupo_1177607" data-name="Grupo 1177607" clip-path="url(#clip-path-21)">
                  <path id="Trazado_1038482" data-name="Trazado 1038482" d="M140.588,356.862a5.243,5.243,0,0,1-5.242,5.242H27.127a5.242,5.242,0,0,1,0-10.485H135.346a5.243,5.243,0,0,1,5.242,5.242" transform="translate(-21.885 -351.62)" fill="#2c4556"/>
                </g>
              </g>
            </g>
          </g>
        </g>
      </g>
    </g>
  </g>
</svg>
